<?xml version="1.0" encoding="UTF-8"?>
<svg width="118px" height="113px" viewBox="0 0 118 113" version="1.1" xmlns="http://www.w3.org/2000/svg" xmlns:xlink="http://www.w3.org/1999/xlink">
    <!-- Generator: Sketch 46.2 (44496) - http://www.bohemiancoding.com/sketch -->
    <title>_WYSIWYG Icon</title>
    <desc>Created with Sketch.</desc>
    <defs>
        <linearGradient x1="42.2572716%" y1="-88.1557258%" x2="70.4219582%" y2="415.942567%" id="linearGradient-1">
            <stop stop-color="#EE499A" offset="0%"></stop>
            <stop stop-color="#F05683" offset="10%"></stop>
            <stop stop-color="#F26A5F" offset="27%"></stop>
            <stop stop-color="#F47944" offset="45%"></stop>
            <stop stop-color="#F58430" offset="62%"></stop>
            <stop stop-color="#F68B24" offset="80%"></stop>
            <stop stop-color="#F68D20" offset="98%"></stop>
        </linearGradient>
        <linearGradient x1="9761.71604%" y1="18027%" x2="9832.59719%" y2="714%" id="linearGradient-2">
            <stop stop-color="#EE499A" offset="0%"></stop>
            <stop stop-color="#F05683" offset="10%"></stop>
            <stop stop-color="#F26A5F" offset="27%"></stop>
            <stop stop-color="#F47944" offset="45%"></stop>
            <stop stop-color="#F58430" offset="62%"></stop>
            <stop stop-color="#F68B24" offset="80%"></stop>
            <stop stop-color="#F68D20" offset="98%"></stop>
        </linearGradient>
    </defs>
    <g id="Landing" stroke="none" stroke-width="1" fill="none" fill-rule="evenodd">
        <g id="Totemic-1024" transform="translate(-570.000000, -6191.000000)">
            <g id="ROAD-MAP" transform="translate(-6.000000, 5647.000000)">
                <g id="Creators_ROAD-MAP" transform="translate(279.000000, 545.000000)">
                    <g id="_WYSIWYG-Icon" transform="translate(292.000000, 0.000000)">
                        <rect id="Rectangle-path" fill="#6E44FF" fill-rule="nonzero" opacity="0.05" transform="translate(47.143499, 69.955384) rotate(-45.000000) translate(-47.143499, -69.955384) " x="13.87442" y="36.7386033" width="66.5381579" height="66.4335616" rx="13.296"></rect>
                        <path d="M121.253553,76.210274 L111.565789,86.0991781" id="Shape" stroke="#F68D20" stroke-width="1.6" opacity="0.62" stroke-linecap="round"></path>
                        <path d="M118.701184,78.7506164 L109.013421,88.6475342" id="Shape" stroke="#F68D20" stroke-width="1.6" opacity="0.62" stroke-linecap="round"></path>
                        <path d="M87.6072368,32.2711644 L77.9194737,42.1600685" id="Shape" stroke="#F68D20" stroke-width="1.6" opacity="0.62" stroke-linecap="round"></path>
                        <path d="M85.0548684,34.8195205 L75.3671053,44.7084247" id="Shape" stroke="#F68D20" stroke-width="1.6" opacity="0.62" stroke-linecap="round"></path>
                        <path d="M54.8919737,10.1293151 L45.2042105,20.0182192" id="Shape" stroke="#F68D20" stroke-width="1.6" opacity="0.62" stroke-linecap="round"></path>
                        <path d="M52.3476316,12.6776712 L42.6598684,22.5665753" id="Shape" stroke="#F68D20" stroke-width="1.6" opacity="0.62" stroke-linecap="round"></path>
                        <path d="M23.6535526,66.6499315 L13.9657895,76.5388356" id="Shape" stroke="#F68D20" stroke-width="1.6" opacity="0.62" stroke-linecap="round"></path>
                        <path d="M90.0953947,2.83684932 L70.0376316,22.8550685" id="Shape" stroke="#F68D20" stroke-width="1.6" opacity="0.62" stroke-linecap="round"></path>
                        <path d="M92.9286842,0 L72.8789474,20.0182192" id="Shape" stroke="#F68D20" stroke-width="1.6" opacity="0.62" stroke-linecap="round"></path>
                        <path d="M47.4997368,64.6304795 C44.1326331,64.6260647 41.4041585,61.9018792 41.3997368,58.5400685 L41.3997368,51.1674658 L34.0155263,51.1674658 C30.6465893,51.1674658 27.9155263,48.4406959 27.9155263,45.0770548 C27.9155263,41.7134137 30.6465893,38.9866438 34.0155263,38.9866438 L41.3997368,38.9866438 L41.3997368,31.6140411 C41.3997368,28.2504 44.1307999,25.5236301 47.4997368,25.5236301 C50.8686738,25.5236301 53.5997368,28.2504 53.5997368,31.6140411 L53.5997368,38.9866438 L61,38.9866438 C64.368937,38.9866438 67.1,41.7134137 67.1,45.0770548 C67.1,48.4406959 64.368937,51.1674658 61,51.1674658 L53.6157895,51.1674658 L53.6157895,58.5400685 C53.6136622,60.1574717 52.9680987,61.7077864 51.8211161,62.8499603 C50.6741334,63.9921342 49.1196866,64.6326062 47.4997368,64.6304795 Z M34.0155263,42.1921233 C32.4197141,42.1921233 31.1260526,43.4837511 31.1260526,45.0770548 C31.1260526,46.6703585 32.4197141,47.9619863 34.0155263,47.9619863 L44.6102632,47.9619863 L44.6102632,58.5400685 C44.6102632,60.1333722 45.9039246,61.425 47.4997368,61.425 C49.0955491,61.425 50.3892105,60.1333722 50.3892105,58.5400685 L50.3892105,47.97 L61,47.97 C62.0323095,47.97 62.9862029,47.4201352 63.5023577,46.5275343 C64.0185125,45.6349333 64.0185125,44.5352036 63.5023577,43.6426027 C62.9862029,42.7500018 62.0323095,42.2001369 61,42.200137 L50.3892105,42.200137 L50.3892105,31.6220548 C50.3892105,30.0287511 49.0955491,28.7371233 47.4997368,28.7371233 C45.9039246,28.7371233 44.6102632,30.0287511 44.6102632,31.6220548 L44.6102632,42.200137 L34.0155263,42.1921233 Z" id="Shape" fill="url(#linearGradient-1)" fill-rule="nonzero"></path>
                        <path d="M26.9202632,96.444863 L29.2157895,96.444863 L29.2157895,98.7367808 C29.2157895,100.002572 30.2435316,101.028699 31.5113158,101.028699 C32.7791,101.028699 33.8068421,100.002572 33.8068421,98.7367808 L33.8068421,96.444863 L36.1184211,96.444863 C37.3862052,96.444863 38.4139474,95.4187365 38.4139474,94.1529452 C38.4139474,92.887154 37.3862052,91.8610274 36.1184211,91.8610274 L33.7988158,91.8610274 L33.7988158,89.5691096 C33.7988158,88.7502862 33.361291,87.9936622 32.6510527,87.5842505 C31.9408143,87.1748388 31.0657646,87.1748388 30.3555263,87.5842505 C29.645288,87.9936622 29.2077631,88.7502862 29.2077632,89.5691096 L29.2077632,91.8610274 L26.9202632,91.8610274 C25.652479,91.8610274 24.6247368,92.887154 24.6247368,94.1529452 C24.6247368,95.4187365 25.652479,96.444863 26.9202632,96.444863 L26.9202632,96.444863 Z" id="Shape" fill="#F68D20" fill-rule="nonzero" opacity="0.62"></path>
                        <path d="M99.7430263,95.4030822 L100.995132,95.4030822 L100.995132,96.6532192 C100.957427,97.1222747 101.186724,97.5727348 101.588451,97.8188103 C101.990177,98.0648859 102.496271,98.0648859 102.897997,97.8188103 C103.299723,97.5727348 103.52902,97.1222747 103.491316,96.6532192 L103.491316,95.4030822 L104.743421,95.4030822 C105.394005,95.3509503 105.895358,94.8086016 105.895358,94.1569521 C105.895358,93.5053025 105.394005,92.9629538 104.743421,92.9108219 L103.491316,92.9108219 L103.491316,91.6606849 C103.439102,91.011124 102.895899,90.5105588 102.243224,90.5105588 C101.590548,90.5105588 101.047346,91.011124 100.995132,91.6606849 L100.995132,92.9108219 L99.7430263,92.9108219 C99.2732323,92.8731769 98.822063,93.1021134 98.5756,93.5032082 C98.329137,93.904303 98.329137,94.4096011 98.5756,94.8106959 C98.822063,95.2117907 99.2732323,95.4407272 99.7430263,95.4030822 L99.7430263,95.4030822 Z" id="Shape" fill="#F68D20" fill-rule="nonzero" opacity="0.62"></path>
                        <path d="M88.0968421,47.0323973 L56.1842105,78.8708219 C55.7420834,79.3102217 55.4814015,79.8994092 55.4538158,80.5216438 L54.8759211,98.4643151 C54.8542872,99.1232722 55.0958996,99.7637887 55.5475396,100.244781 C55.9991795,100.725773 56.623799,101.007784 57.2838158,101.028699 L57.4523684,101.028699 L75.4473684,100.451712 C76.0705827,100.42417 76.6606979,100.163898 77.1007895,99.7224658 L108.989342,67.8840411 C113.111686,64.2482483 114.871667,58.6281147 113.557894,53.2953153 C112.244122,47.9625159 108.073812,43.7987614 102.732616,42.4870541 C97.3914205,41.1753467 91.7624382,42.9325607 88.1209211,47.0484247 L88.0968421,47.0323973 Z M73.7136842,97.3904795 L58.0382895,97.8953425 L58.5439474,82.244589 L87.4868421,53.3231507 L102.736842,68.4369863 L73.7136842,97.3904795 Z M110.289605,57.6986301 C110.292541,60.845129 109.042224,63.8636601 106.814211,66.0889726 L105.401579,67.4753425 L88.5463158,50.6465753 L89.8947368,49.220137 C93.309652,45.8052353 98.4493543,44.7819359 102.914982,46.6278452 C107.38061,48.4737544 110.29172,52.824933 110.289605,57.6505479 L110.289605,57.6986301 Z" id="Shape" fill="url(#linearGradient-2)" fill-rule="nonzero"></path>
                    </g>
                </g>
            </g>
        </g>
    </g>
</svg>