<?xml version="1.0" encoding="UTF-8"?>
<svg width="116px" height="108px" viewBox="0 0 116 108" version="1.1" xmlns="http://www.w3.org/2000/svg" xmlns:xlink="http://www.w3.org/1999/xlink">
    <!-- Generator: Sketch 46.2 (44496) - http://www.bohemiancoding.com/sketch -->
    <title>_Market Icon</title>
    <desc>Created with Sketch.</desc>
    <defs>
        <linearGradient x1="42.2708209%" y1="-88.1965249%" x2="70.4613541%" y2="415.937687%" id="linearGradient-1">
            <stop stop-color="#EE499A" offset="0%"></stop>
            <stop stop-color="#F05683" offset="10%"></stop>
            <stop stop-color="#F26A5F" offset="27%"></stop>
            <stop stop-color="#F47944" offset="45%"></stop>
            <stop stop-color="#F58430" offset="62%"></stop>
            <stop stop-color="#F68B24" offset="80%"></stop>
            <stop stop-color="#F68D20" offset="98%"></stop>
        </linearGradient>
        <linearGradient x1="-4076%" y1="5315%" x2="10294%" y2="16630%" id="linearGradient-2">
            <stop stop-color="#EE499A" offset="0%"></stop>
            <stop stop-color="#F05683" offset="10%"></stop>
            <stop stop-color="#F26A5F" offset="27%"></stop>
            <stop stop-color="#F47944" offset="45%"></stop>
            <stop stop-color="#F58430" offset="62%"></stop>
            <stop stop-color="#F68B24" offset="80%"></stop>
            <stop stop-color="#F68D20" offset="98%"></stop>
        </linearGradient>
        <linearGradient x1="4472.75832%" y1="14051%" x2="8085.79947%" y2="2101%" id="linearGradient-3">
            <stop stop-color="#EE499A" offset="0%"></stop>
            <stop stop-color="#F05683" offset="10%"></stop>
            <stop stop-color="#F26A5F" offset="27%"></stop>
            <stop stop-color="#F47944" offset="45%"></stop>
            <stop stop-color="#F58430" offset="62%"></stop>
            <stop stop-color="#F68B24" offset="80%"></stop>
            <stop stop-color="#F68D20" offset="98%"></stop>
        </linearGradient>
        <linearGradient x1="6455.50054%" y1="14674%" x2="10048.0139%" y2="2724%" id="linearGradient-4">
            <stop stop-color="#EE499A" offset="0%"></stop>
            <stop stop-color="#F05683" offset="10%"></stop>
            <stop stop-color="#F26A5F" offset="27%"></stop>
            <stop stop-color="#F47944" offset="45%"></stop>
            <stop stop-color="#F58430" offset="62%"></stop>
            <stop stop-color="#F68B24" offset="80%"></stop>
            <stop stop-color="#F68D20" offset="98%"></stop>
        </linearGradient>
        <linearGradient x1="320.657825%" y1="262.639332%" x2="-203.482918%" y2="-437.010137%" id="linearGradient-5">
            <stop stop-color="#EE499A" offset="0%"></stop>
            <stop stop-color="#F05683" offset="10%"></stop>
            <stop stop-color="#F26A5F" offset="27%"></stop>
            <stop stop-color="#F47944" offset="45%"></stop>
            <stop stop-color="#F58430" offset="62%"></stop>
            <stop stop-color="#F68B24" offset="80%"></stop>
            <stop stop-color="#F68D20" offset="100%"></stop>
        </linearGradient>
    </defs>
    <g id="Landing" stroke="none" stroke-width="1" fill="none" fill-rule="evenodd">
        <g id="Totemic-1920" transform="translate(-1063.000000, -7703.000000)">
            <g id="ROAD-MAP" transform="translate(-12.000000, 6200.000000)">
                <g id="Collectors_ROAD-Map" transform="translate(718.000000, 616.000000)">
                    <g id="_Market-Icon" transform="translate(357.000000, 888.000000)">
                        <rect id="Rectangle-path" fill="#6E44FF" fill-rule="nonzero" opacity="0.0706748188" transform="translate(52.849510, 65.334937) rotate(-45.000000) translate(-52.849510, -65.334937) " x="19.7470799" y="32.1161426" width="66.2048611" height="66.4375887" rx="13.296"></rect>
                        <path d="M102.821181,69.2585816 L79.4378472,92.7321277" id="Shape" stroke="#F68D20" stroke-width="1.744" opacity="0.62" stroke-linecap="round"></path>
                        <path d="M110.783333,61.2764539 L87.3920139,84.7419858" id="Shape" stroke="#F68D20" stroke-width="1.744" opacity="0.62" stroke-linecap="round"></path>
                        <path d="M66.2368056,0 L46.2875,20.0194326" id="Shape" stroke="#F68D20" stroke-width="1.6" opacity="0.62" stroke-linecap="round"></path>
                        <path d="M17.4975694,71.2300709 L0.734722222,88.051844" id="Shape" stroke="#F68D20" stroke-width="1.464" opacity="0.62" stroke-linecap="round"></path>
                        <path d="M114.305208,31.8884397 L94.3559028,51.9078723" id="Shape" stroke="#F68D20" stroke-width="1.6" opacity="0.62" stroke-linecap="round"></path>
                        <path d="M107.029861,39.4778723 L87.0805556,59.497305" id="Shape" stroke="#F68D20" stroke-width="1.6" opacity="0.62" stroke-linecap="round"></path>
                        <path d="M87.8472222,43.6051773 C85.5537064,43.6051773 83.6944444,41.7393796 83.6944444,39.4378014 L83.6944444,34.3968794 L78.6631944,34.3968794 C76.3696786,34.3968794 74.5104167,32.5310817 74.5104167,30.2295035 C74.5104167,27.9279254 76.3696786,26.0621277 78.6631944,26.0621277 L83.6864583,26.0621277 L83.6864583,21.0212057 C83.6864583,18.7196275 85.5457203,16.8538298 87.8392361,16.8538298 C90.1327519,16.8538298 91.9920139,18.7196275 91.9920139,21.0212057 L91.9920139,26.0621277 L97.0152778,26.0621277 C99.3087936,26.0621277 101.168056,27.9279254 101.168056,30.2295035 C101.168056,32.5310817 99.3087936,34.3968794 97.0152778,34.3968794 L91.9920139,34.3968794 L91.9920139,39.4378014 C91.9920181,41.7362535 90.1376187,43.6007572 87.8472222,43.6051773 Z M78.6631944,28.2580142 C77.578185,28.2580142 76.6986111,29.14068 76.6986111,30.2295035 C76.6986111,31.3183271 77.578185,32.2009929 78.6631944,32.2009929 L85.8506944,32.2009929 L85.8506944,39.4137589 C85.8506944,40.5025824 86.7302684,41.3852482 87.8152778,41.3852482 C88.9002872,41.3852482 89.7798611,40.5025824 89.7798611,39.4137589 L89.7798611,32.2009929 L96.9673611,32.2009929 C97.6692392,32.2009929 98.3178012,31.8252292 98.6687403,31.2152483 C99.0196793,30.6052673 99.0196793,29.8537398 98.6687403,29.2437588 C98.3178012,28.6337779 97.6692392,28.2580142 96.9673611,28.2580142 L89.7798611,28.2580142 L89.7798611,21.0452482 C89.7798611,19.9564247 88.9002872,19.0737589 87.8152778,19.0737589 C86.7302684,19.0737589 85.8506944,19.9564247 85.8506944,21.0452482 L85.8506944,28.2580142 L78.6631944,28.2580142 Z" id="Shape" fill="url(#linearGradient-1)" fill-rule="nonzero"></path>
                        <path d="M29.2770833,42.242766 L31.5611111,42.242766 L31.5611111,44.5348227 C31.5611111,45.8006907 32.5837052,46.8268794 33.8451389,46.8268794 C35.1065726,46.8268794 36.1291667,45.8006907 36.1291667,44.5348227 L36.1291667,42.242766 L38.4131944,42.242766 C39.6746282,42.242766 40.6972222,41.2165772 40.6972222,39.9507092 C40.6972222,38.6848412 39.6746282,37.6586525 38.4131944,37.6586525 L36.1211806,37.6586525 L36.1211806,35.3665957 C36.1211806,34.1007278 35.0985865,33.074539 33.8371528,33.074539 C32.5757191,33.074539 31.553125,34.1007278 31.553125,35.3665957 L31.553125,37.6666667 L29.2770833,37.6666667 C28.0156497,37.6666667 26.9930557,38.6928555 26.9930557,39.9587234 C26.9930557,41.2245913 28.0156497,42.2507801 29.2770833,42.2507801 L29.2770833,42.242766 Z" id="Shape" fill="#F68D20" fill-rule="nonzero" opacity="0.62"></path>
                        <path d="M23.5590278,88.9574468 L13.7520833,88.9574468 C13.150713,88.9509455 12.5720837,89.1878081 12.1468259,89.6145607 C11.7215682,90.0413133 11.4855354,90.6219767 11.4920139,91.225461 L11.4920139,101.066879 C11.4855354,101.670364 11.7215682,102.251027 12.1468259,102.67778 C12.5720837,103.104532 13.150713,103.341395 13.7520833,103.334894 L23.5590278,103.334894 C24.1603981,103.341395 24.7390275,103.104532 25.1642852,102.67778 C25.5895429,102.251027 25.8255757,101.670364 25.8190972,101.066879 L25.8190972,91.2014184 C25.80168,89.9600535 24.7961597,88.9616952 23.5590278,88.9574468 Z" id="Shape" fill="url(#linearGradient-2)" fill-rule="nonzero" opacity="0.18"></path>
                        <path d="M27.8236111,64.7946809 L30.8024306,72.4882979 C34.1059376,71.8496977 37.48476,73.1444979 39.5232639,75.8302128 L44.3149306,70.3244681 C42.6530759,68.658789 41.7193349,66.3984005 41.7194444,64.0413475 C41.7194444,63.9131206 41.7194444,63.7848936 41.7194444,63.6566667 L31.0579861,61.2524113 C30.327462,62.7108984 29.2077507,63.9372001 27.8236111,64.7946809 Z" id="Shape"></path>
                        <path d="M28.3746528,59.5133333 C28.9857932,58.1313189 29.0203039,56.5613309 28.4704861,55.153617 L28.4704861,55.153617 C27.4893556,52.6197369 24.861189,51.134236 22.1933008,51.6056059 C19.5254127,52.0769758 17.560867,54.3739298 17.5011258,57.0917141 C17.4413847,59.8094984 19.3030874,62.1911517 21.9476677,62.7801203 C24.5922479,63.369089 27.2831335,62.0013326 28.3746528,59.5133333 L28.3746528,59.5133333 Z" id="Shape"></path>
                        <path d="M34.7555556,76.014539 C32.2764167,74.9183783 29.3709056,75.7324359 27.8161519,77.9588008 C26.2613982,80.1851658 26.4904981,83.2036562 28.3633247,85.1680396 C30.2361513,87.132423 33.2310052,87.4954958 35.5161111,86.0351877 C37.801217,84.5748796 38.7400299,81.6979779 37.7583333,79.1641135 C37.2144453,77.7554103 36.1339174,76.6220587 34.7555556,76.014539 L34.7555556,76.014539 Z" id="Shape"></path>
                        <path d="M57.8753472,39.8144681 C60.0901012,37.5896919 60.0901012,33.9849889 57.8753472,31.7602128 L57.8753472,31.7602128 C56.2518645,30.1293834 53.8091537,29.6408287 51.6866826,30.522448 C49.5642115,31.4040674 48.1801627,33.4821585 48.1801627,35.7873404 C48.1801627,38.0925223 49.5642115,40.1706135 51.6866826,41.0522328 C53.8091537,41.9338521 56.2518645,41.4452974 57.8753472,39.8144681 Z" id="Shape"></path>
                        <ellipse id="Oval" cx="71.15625" cy="55.0814894" rx="5.678125" ry="5.69808511"></ellipse>
                        <path d="M62.2916667,55.0814894 C62.2931988,52.7999573 63.1713599,50.6068839 64.7434028,48.9586525 L58.9135417,43.1082979 C57.545651,44.0597924 55.9365496,44.6017507 54.2736111,44.6710638 L52.4447917,55.3459574 C55.6976199,56.0413545 58.2880346,58.5068931 59.1519956,61.7298271 C60.0159565,64.952761 59.0078114,68.3897472 56.5416667,70.6290071 L63.6652778,76.0866667 C64.9870525,73.9846213 67.1235619,72.5320333 69.5590278,72.0795745 L69.5590278,63.8329787 C65.3522876,63.0531479 62.297434,59.3744372 62.2916667,55.0814894 L62.2916667,55.0814894 Z" id="Shape"></path>
                        <ellipse id="Oval" cx="50.5840278" cy="64.0493617" rx="5.678125" ry="5.69808511"></ellipse>
                        <ellipse id="Oval" cx="71.15625" cy="80.8470922" rx="5.678125" ry="5.69808511"></ellipse>
                        <path d="M56.5416667,70.6290071 C59.0078114,68.3897472 60.0159565,64.952761 59.1519956,61.7298271 C58.2880346,58.5068931 55.6976199,56.0413545 52.4447917,55.3459574 L52.1572917,57.020922 L49.0107639,56.4839716 L49.2184028,55.2978723 C46.2067259,55.7725135 43.6475598,57.7629149 42.4381944,60.5712057 L43.6680556,60.8517021 L42.9652778,63.977234 L41.7434028,63.6967376 C41.7434028,63.8249645 41.7434028,63.9531915 41.7434028,64.0814184 C41.7432933,66.4384714 42.6770342,68.6988599 44.3388889,70.364539 L45.4170139,69.1223404 L47.8128472,71.2300709 L47.0142361,72.191773 C49.2097223,73.1938757 51.7192127,73.2460386 53.9541667,72.3360284 L55.7350694,69.9958865 L56.5416667,70.6290071 Z M50.5840278,69.7234043 C47.4480859,69.7234043 44.9059028,67.1722847 44.9059028,64.0253191 C44.9059028,60.8783536 47.4480859,58.327234 50.5840278,58.327234 C53.7199696,58.327234 56.2621528,60.8783536 56.2621528,64.0253191 C56.257754,67.1704544 53.7181458,69.71899 50.5840278,69.7234043 L50.5840278,69.7234043 Z" id="Shape" fill="url(#linearGradient-3)" fill-rule="nonzero"></path>
                        <path d="M65.2625,49.4875887 L64.7354167,48.9586525 C62.4853368,51.3170118 61.7064617,54.7242898 62.7072709,57.8310087 C63.70808,60.9377275 66.3271134,63.2426824 69.5270833,63.8329787 L69.5270833,62.3824113 L72.7215278,62.3824113 L72.7215278,63.8329787 C76.115629,63.2155585 78.844616,60.6784021 79.7168738,57.3293616 C80.5891316,53.9803212 79.446245,50.4276328 76.7872566,48.2225818 C74.1282682,46.0175307 70.4360905,45.5605874 67.3229167,47.0512766 L67.490625,47.2195745 L65.2625,49.4875887 Z M76.834375,55.0975177 C76.834375,58.2444832 74.2921918,60.7956028 71.15625,60.7956028 C68.0203082,60.7956028 65.478125,58.2444832 65.478125,55.0975177 C65.478125,51.9505522 68.0203082,49.3994326 71.15625,49.3994326 C74.2841534,49.4038133 76.8211987,51.9426154 76.834375,55.0814894 L76.834375,55.0975177 Z" id="Shape" fill="url(#linearGradient-4)" fill-rule="nonzero"></path>
                        <path d="M72.7534722,72.1276596 L72.7534722,72.929078 L69.5590278,72.929078 L69.5590278,72.1276596 C67.1264979,72.5821891 64.9932312,74.0345403 63.6732639,76.1347518 L65.2225694,77.3288652 L63.2819444,79.8773759 L62.4833333,79.2362411 C61.8134642,82.783561 63.3445843,86.3856597 66.3596465,88.3556188 C69.3747086,90.325578 73.2767585,90.273364 76.238406,88.2234294 C79.2000534,86.1734949 80.6349197,82.5317078 79.8710349,79.0035733 C79.10715,75.4754388 76.2957561,72.7594947 72.7534722,72.1276596 L72.7534722,72.1276596 Z M71.15625,86.5531915 C68.0203082,86.5531915 65.478125,84.0020719 65.478125,80.8551064 C65.478125,77.7081409 68.0203082,75.1570213 71.15625,75.1570213 C74.2921918,75.1570213 76.834375,77.7081409 76.834375,80.8551064 C76.8299762,84.0002416 74.290368,86.5487773 71.15625,86.5531915 L71.15625,86.5531915 Z" id="Shape" fill="url(#linearGradient-5)" fill-rule="nonzero"></path>
                        <path d="M27.2965278,63.4402837 L27.8236111,64.7946809 C29.2136406,63.9394995 30.3390777,62.7129839 31.0739583,61.2524113 L29.7642361,60.9558865 L30.4670139,57.8303546 L31.9923611,58.1749645 C32.4148577,54.3444152 30.3402506,50.6741848 26.8471756,49.0725102 C23.3541006,47.4708357 19.2311382,48.2993037 16.6219112,51.1271747 C14.0126842,53.9550458 13.5062397,58.1439127 15.3658897,61.5158875 C17.2255398,64.8878623 21.0314584,66.6817035 24.8048611,65.9647518 L24.2777778,64.6023404 L27.2965278,63.4402837 Z M20.9076389,62.4304965 C18.5541524,61.3923256 17.1893805,58.8968597 17.5805924,56.3470395 C17.9718043,53.7972194 20.0213816,51.8292972 22.5770603,51.5496307 C25.132739,51.2699643 27.556805,52.7483384 28.4864583,55.153617 L28.4864583,55.153617 C29.3164757,57.301109 28.7764778,59.7388675 27.1180263,61.3312464 C25.4595748,62.9236252 23.0088896,63.357401 20.9076389,62.4304965 Z" id="Shape" fill="url(#linearGradient-5)" fill-rule="nonzero"></path>
                        <path d="M38.0458333,77.537234 L39.5232639,75.838227 C37.48476,73.1525121 34.1059376,71.8577119 30.8024306,72.4963121 L31.3295139,73.8507092 L28.3506944,75.012766 L27.8236111,73.6583688 C23.9310429,76.0545204 22.4866035,81.0243449 24.4851814,85.1447695 C26.4837593,89.2651941 31.272551,91.1903481 35.553174,89.5942404 C39.8337969,87.9981328 42.208054,83.4021066 41.040625,78.971773 L40.4496528,79.6529787 L38.0458333,77.537234 Z M37.6625,83.531844 C36.5709807,86.0198432 33.8800951,87.3875996 31.2355149,86.7986309 C28.5909346,86.2096623 26.7292319,83.828009 26.7889731,81.1102247 C26.8487142,78.3924405 28.8132599,76.0954864 31.4811481,75.6241165 C34.1490362,75.1527466 36.7772028,76.6382475 37.7583333,79.1721277 C38.3081512,80.5798415 38.2736404,82.1498295 37.6625,83.531844 L37.6625,83.531844 Z" id="Shape" fill="url(#linearGradient-5)" fill-rule="nonzero"></path>
                        <path d="M30.8024306,72.4882979 L27.8236111,64.7946809 C26.9098295,65.3615557 25.9001841,65.7554249 24.8447917,65.9567376 L27.8236111,73.6503546 C28.2800259,73.3667453 28.7611696,73.1253278 29.2611111,72.929078 C29.7607191,72.7362039 30.2765588,72.5886862 30.8024306,72.4882979 Z" id="Shape" fill="url(#linearGradient-5)" fill-rule="nonzero"></path>
                        <path d="M27.8236111,64.7946809 L27.2965278,63.4402837 L24.3177083,64.6023404 L24.8447917,65.9647518 C25.9001841,65.7634391 26.9098295,65.3695699 27.8236111,64.802695 L27.8236111,64.7946809 Z" id="Shape" fill="url(#linearGradient-5)" fill-rule="nonzero"></path>
                        <path d="M27.8236111,64.7946809 L27.2965278,63.4402837 L24.3177083,64.6023404 L24.8447917,65.9647518 C25.9001841,65.7634391 26.9098295,65.3695699 27.8236111,64.802695 L27.8236111,64.7946809 Z" id="Shape" fill="url(#linearGradient-5)" fill-rule="nonzero"></path>
                        <path d="M31.3215278,73.842695 L30.7944444,72.4882979 C30.2685727,72.5886862 29.752733,72.7362039 29.253125,72.929078 C28.7531834,73.1253278 28.2720398,73.3667453 27.815625,73.6503546 L28.3427083,75.0047518 L31.3215278,73.842695 Z" id="Shape" fill="url(#linearGradient-5)" fill-rule="nonzero"></path>
                        <path d="M31.3215278,73.842695 L30.7944444,72.4882979 C30.2685727,72.5886862 29.752733,72.7362039 29.253125,72.929078 C28.7531834,73.1253278 28.2720398,73.3667453 27.815625,73.6503546 L28.3427083,75.0047518 L31.3215278,73.842695 Z" id="Shape" fill="url(#linearGradient-5)" fill-rule="nonzero"></path>
                        <path d="M69.5590278,63.8329787 L69.5590278,72.1276596 C70.6142302,71.924608 71.6982698,71.924608 72.7534722,72.1276596 L72.7534722,63.8329787 C71.6982698,64.0360303 70.6142302,64.0360303 69.5590278,63.8329787 L69.5590278,63.8329787 Z" id="Shape" fill="url(#linearGradient-5)" fill-rule="nonzero"></path>
                        <path d="M69.5590278,62.3824113 L69.5590278,63.8329787 C70.6142302,64.0360303 71.6982698,64.0360303 72.7534722,63.8329787 L72.7534722,62.3824113 L69.5590278,62.3824113 Z" id="Shape" fill="url(#linearGradient-5)" fill-rule="nonzero"></path>
                        <path d="M69.5590278,62.3824113 L69.5590278,63.8329787 C70.6142302,64.0360303 71.6982698,64.0360303 72.7534722,63.8329787 L72.7534722,62.3824113 L69.5590278,62.3824113 Z" id="Shape" fill="url(#linearGradient-5)" fill-rule="nonzero"></path>
                        <path d="M69.5590278,72.1276596 L69.5590278,72.929078 L72.7534722,72.929078 L72.7534722,72.1276596 C71.6982698,71.924608 70.6142302,71.924608 69.5590278,72.1276596 Z" id="Shape" fill="url(#linearGradient-5)" fill-rule="nonzero"></path>
                        <path d="M69.5590278,72.1276596 L69.5590278,72.929078 L72.7534722,72.929078 L72.7534722,72.1276596 C71.6982698,71.924608 70.6142302,71.924608 69.5590278,72.1276596 Z" id="Shape" fill="url(#linearGradient-5)" fill-rule="nonzero"></path>
                        <path d="M54.48125,43.3567376 L54.2576389,44.6710638 C55.9205773,44.6017507 57.5296788,44.0597924 58.8975694,43.1082979 L57.8753472,42.0824823 L60.1354167,39.8144681 L61.1576389,40.8723404 C63.3458394,37.7235734 63.2766187,33.5219094 60.985893,30.4474505 C58.6951673,27.3729917 54.6987469,26.1180238 51.0702397,27.3337076 C47.4417325,28.5493914 44.9981814,31.9619873 45.0074628,35.8008141 C45.0167442,39.639641 47.4767682,43.0402977 51.1111111,44.2382979 L51.3506944,42.811773 L54.48125,43.3567376 Z M49.8493056,39.8144681 C47.6435159,37.5881584 47.6477784,33.9908041 49.8588375,31.7697647 C52.0698966,29.5487253 55.6546436,29.5408703 57.8753472,31.7521986 L57.8753472,31.7521986 C60.0811368,33.9785082 60.0768744,37.5758626 57.8658153,39.7969019 C55.6547561,42.0179413 52.0700092,42.0257964 49.8493056,39.8144681 L49.8493056,39.8144681 Z" id="Shape" fill="url(#linearGradient-5)" fill-rule="nonzero"></path>
                        <path d="M58.9055556,43.1082979 L64.7354167,48.9586525 C65.4852513,48.1677659 66.3730335,47.521318 67.3548611,47.0512766 L61.1576389,40.8723404 C60.551235,41.7626836 59.7847938,42.5318191 58.8975694,43.1403546 L58.9055556,43.1082979 Z" id="Shape" fill="url(#linearGradient-5)" fill-rule="nonzero"></path>
                        <path d="M65.2625,49.4875887 L67.5225694,47.2195745 L67.3548611,47.0512766 C66.3730335,47.521318 65.4852513,48.1677659 64.7354167,48.9586525 L65.2625,49.4875887 Z" id="Shape" fill="url(#linearGradient-5)" fill-rule="nonzero"></path>
                        <path d="M65.2625,49.4875887 L67.5225694,47.2195745 L67.3548611,47.0512766 C66.3730335,47.521318 65.4852513,48.1677659 64.7354167,48.9586525 L65.2625,49.4875887 Z" id="Shape" fill="url(#linearGradient-5)" fill-rule="nonzero"></path>
                        <path d="M57.8753472,42.0824823 L58.8975694,43.1082979 C59.7819109,42.5092533 60.5481654,41.7511738 61.1576389,40.8723404 L60.1354167,39.8144681 L57.8753472,42.0824823 Z" id="Shape" fill="url(#linearGradient-5)" fill-rule="nonzero"></path>
                        <path d="M57.8753472,42.0824823 L58.8975694,43.1082979 C59.7819109,42.5092533 60.5481654,41.7511738 61.1576389,40.8723404 L60.1354167,39.8144681 L57.8753472,42.0824823 Z" id="Shape" fill="url(#linearGradient-5)" fill-rule="nonzero"></path>
                        <path d="M52.4447917,55.3459574 L54.2576389,44.6630496 L53.8583333,44.6630496 C52.9260522,44.6670534 51.9989575,44.5237141 51.1111111,44.2382979 L49.2184028,55.2978723 C50.2786319,55.1208376 51.3627577,55.148036 52.4128472,55.3780142 L52.4447917,55.3459574 Z" id="Shape" fill="url(#linearGradient-5)" fill-rule="nonzero"></path>
                        <path d="M52.1572917,57.020922 L52.4447917,55.3459574 C51.3947022,55.1159793 50.3105764,55.0887809 49.2503472,55.2658156 L49.0427083,56.4839716 L52.1572917,57.020922 Z" id="Shape" fill="url(#linearGradient-5)" fill-rule="nonzero"></path>
                        <path d="M52.1572917,57.020922 L52.4447917,55.3459574 C51.3947022,55.1159793 50.3105764,55.0887809 49.2503472,55.2658156 L49.0427083,56.4839716 L52.1572917,57.020922 Z" id="Shape" fill="url(#linearGradient-5)" fill-rule="nonzero"></path>
                        <path d="M54.2576389,44.6710638 L54.48125,43.3567376 L51.3347222,42.8197872 L51.1111111,44.2382979 C52.0052874,44.534379 52.9406969,44.6858691 53.8822917,44.6870922 L54.2576389,44.6710638 Z" id="Shape" fill="url(#linearGradient-5)" fill-rule="nonzero"></path>
                        <path d="M54.2576389,44.6710638 L54.48125,43.3567376 L51.3347222,42.8197872 L51.1111111,44.2382979 C52.0052874,44.534379 52.9406969,44.6858691 53.8822917,44.6870922 L54.2576389,44.6710638 Z" id="Shape" fill="url(#linearGradient-5)" fill-rule="nonzero"></path>
                        <path d="M31.0739583,61.2524113 L41.7354167,63.6566667 C41.7774546,62.5804895 42.0156473,61.5211516 42.4381944,60.5311348 L32.0003472,58.1268794 C31.9022626,59.0367435 31.6652291,59.9260407 31.2975694,60.7635461 C31.2256944,60.9558865 31.1458333,61.1001418 31.0739583,61.2524113 Z" id="Shape" fill="url(#linearGradient-5)" fill-rule="nonzero"></path>
                        <path d="M42.9572917,63.9451773 L43.6600694,60.8196454 L42.4302083,60.5391489 C42.0076612,61.5291658 41.7694685,62.5885037 41.7274306,63.6646809 L42.9572917,63.9451773 Z" id="Shape" fill="url(#linearGradient-5)" fill-rule="nonzero"></path>
                        <path d="M42.9572917,63.9451773 L43.6600694,60.8196454 L42.4302083,60.5391489 C42.0076612,61.5291658 41.7694685,62.5885037 41.7274306,63.6646809 L42.9572917,63.9451773 Z" id="Shape" fill="url(#linearGradient-5)" fill-rule="nonzero"></path>
                        <path d="M29.7642361,60.9558865 L31.0739583,61.2524113 C31.1458333,61.108156 31.2256944,60.9639007 31.2975694,60.8116312 C31.6652291,59.9741258 31.9022626,59.0848286 32.0003472,58.1749645 L30.475,57.8303546 L29.7642361,60.9558865 Z" id="Shape" fill="url(#linearGradient-5)" fill-rule="nonzero"></path>
                        <path d="M29.7642361,60.9558865 L31.0739583,61.2524113 C31.1458333,61.108156 31.2256944,60.9639007 31.2975694,60.8116312 C31.6652291,59.9741258 31.9022626,59.0848286 32.0003472,58.1749645 L30.475,57.8303546 L29.7642361,60.9558865 Z" id="Shape" fill="url(#linearGradient-5)" fill-rule="nonzero"></path>
                        <path d="M39.5232639,75.838227 C40.0242938,76.5021318 40.4302035,77.2331795 40.7291667,78.0100709 C40.8478473,78.3220812 40.9491609,78.6404679 41.0326389,78.9637589 L46.9583333,72.1276596 C45.9713377,71.6851387 45.0728874,71.0659617 44.3069444,70.3004255 L39.5232639,75.838227 Z" id="Shape" fill="url(#linearGradient-5)" fill-rule="nonzero"></path>
                        <path d="M45.3850694,69.0902837 L44.3069444,70.3324823 C45.0755264,71.0865601 45.9738106,71.6947619 46.9583333,72.1276596 L47.7569444,71.1659574 L45.3850694,69.0902837 Z" id="Shape" fill="url(#linearGradient-5)" fill-rule="nonzero"></path>
                        <path d="M45.3850694,69.0902837 L44.3069444,70.3324823 C45.0755264,71.0865601 45.9738106,71.6947619 46.9583333,72.1276596 L47.7569444,71.1659574 L45.3850694,69.0902837 Z" id="Shape" fill="url(#linearGradient-5)" fill-rule="nonzero"></path>
                        <path d="M39.5232639,75.838227 L38.0458333,77.537234 L40.4416667,79.6449645 L41.0326389,78.9637589 C40.9491609,78.6404679 40.8478473,78.3220812 40.7291667,78.0100709 C40.4302035,77.2331795 40.0242938,76.5021318 39.5232639,75.838227 L39.5232639,75.838227 Z" id="Shape" fill="url(#linearGradient-5)" fill-rule="nonzero"></path>
                        <path d="M39.5232639,75.838227 L38.0458333,77.537234 L40.4416667,79.6449645 L41.0326389,78.9637589 C40.9491609,78.6404679 40.8478473,78.3220812 40.7291667,78.0100709 C40.4302035,77.2331795 40.0242938,76.5021318 39.5232639,75.838227 L39.5232639,75.838227 Z" id="Shape" fill="url(#linearGradient-5)" fill-rule="nonzero"></path>
                        <path d="M56.5416667,70.6290071 C55.7638746,71.3407361 54.8660845,71.907898 53.8902778,72.3039716 L53.7305556,72.5123404 L62.4354167,79.188156 C62.6433229,78.0885078 63.0580007,77.0386494 63.6572917,76.0946809 L56.5416667,70.6290071 Z" id="Shape" fill="url(#linearGradient-5)" fill-rule="nonzero"></path>
                        <path d="M55.6791667,69.9638298 L53.8982639,72.3039716 C54.8740706,71.907898 55.7718607,71.3407361 56.5496528,70.6290071 L55.6791667,69.9638298 Z" id="Shape" fill="url(#linearGradient-5)" fill-rule="nonzero"></path>
                        <path d="M55.6791667,69.9638298 L53.8982639,72.3039716 C54.8740706,71.907898 55.7718607,71.3407361 56.5496528,70.6290071 L55.6791667,69.9638298 Z" id="Shape" fill="url(#linearGradient-5)" fill-rule="nonzero"></path>
                        <path d="M65.2225694,77.2807801 L63.6732639,76.0866667 C63.073973,77.0306352 62.6592951,78.0804936 62.4513889,79.1801418 L63.25,79.8212766 L65.2225694,77.2807801 Z" id="Shape" fill="url(#linearGradient-5)" fill-rule="nonzero"></path>
                        <path d="M65.2225694,77.2807801 L63.6732639,76.0866667 C63.073973,77.0306352 62.6592951,78.0804936 62.4513889,79.1801418 L63.25,79.8212766 L65.2225694,77.2807801 Z" id="Shape" fill="url(#linearGradient-5)" fill-rule="nonzero"></path>
                    </g>
                </g>
            </g>
        </g>
    </g>
</svg>