<?xml version="1.0" encoding="UTF-8"?>
<svg width="114px" height="114px" viewBox="0 0 114 114" version="1.1" xmlns="http://www.w3.org/2000/svg" xmlns:xlink="http://www.w3.org/1999/xlink">
    <!-- Generator: Sketch 46.2 (44496) - http://www.bohemiancoding.com/sketch -->
    <title>_Cards Icon</title>
    <desc>Created with Sketch.</desc>
    <defs>
        <linearGradient x1="192.124031%" y1="314.279315%" x2="-117.984496%" y2="-262.414604%" id="linearGradient-1">
            <stop stop-color="#EE499A" offset="0%"></stop>
            <stop stop-color="#F05683" offset="10%"></stop>
            <stop stop-color="#F26A5F" offset="27%"></stop>
            <stop stop-color="#F47944" offset="45%"></stop>
            <stop stop-color="#F58430" offset="62%"></stop>
            <stop stop-color="#F68B24" offset="80%"></stop>
            <stop stop-color="#F68D20" offset="98%"></stop>
        </linearGradient>
        <linearGradient x1="17884%" y1="6360.63238%" x2="1969%" y2="-3373.17893%" id="linearGradient-2">
            <stop stop-color="#EE499A" offset="0%"></stop>
            <stop stop-color="#F05683" offset="10%"></stop>
            <stop stop-color="#F26A5F" offset="27%"></stop>
            <stop stop-color="#F47944" offset="45%"></stop>
            <stop stop-color="#F58430" offset="62%"></stop>
            <stop stop-color="#F68B24" offset="80%"></stop>
            <stop stop-color="#F68D20" offset="98%"></stop>
        </linearGradient>
        <linearGradient x1="17295%" y1="11721.5422%" x2="1380%" y2="-6130.64082%" id="linearGradient-3">
            <stop stop-color="#EE499A" offset="0%"></stop>
            <stop stop-color="#F05683" offset="10%"></stop>
            <stop stop-color="#F26A5F" offset="27%"></stop>
            <stop stop-color="#F47944" offset="45%"></stop>
            <stop stop-color="#F58430" offset="62%"></stop>
            <stop stop-color="#F68B24" offset="80%"></stop>
            <stop stop-color="#F68D20" offset="98%"></stop>
        </linearGradient>
        <linearGradient x1="9201%" y1="6650.96835%" x2="-6714%" y2="-3340.22028%" id="linearGradient-4">
            <stop stop-color="#EE499A" offset="0%"></stop>
            <stop stop-color="#F05683" offset="10%"></stop>
            <stop stop-color="#F26A5F" offset="27%"></stop>
            <stop stop-color="#F47944" offset="45%"></stop>
            <stop stop-color="#F58430" offset="62%"></stop>
            <stop stop-color="#F68B24" offset="80%"></stop>
            <stop stop-color="#F68D20" offset="98%"></stop>
        </linearGradient>
        <linearGradient x1="9800%" y1="12144.7825%" x2="-6115%" y2="-6320.30034%" id="linearGradient-5">
            <stop stop-color="#EE499A" offset="0%"></stop>
            <stop stop-color="#F05683" offset="10%"></stop>
            <stop stop-color="#F26A5F" offset="27%"></stop>
            <stop stop-color="#F47944" offset="45%"></stop>
            <stop stop-color="#F58430" offset="62%"></stop>
            <stop stop-color="#F68B24" offset="80%"></stop>
            <stop stop-color="#F68D20" offset="98%"></stop>
        </linearGradient>
        <linearGradient x1="2326%" y1="-2817%" x2="3266%" y2="14010%" id="linearGradient-6">
            <stop stop-color="#EE499A" offset="0%"></stop>
            <stop stop-color="#F05683" offset="10%"></stop>
            <stop stop-color="#F26A5F" offset="27%"></stop>
            <stop stop-color="#F47944" offset="45%"></stop>
            <stop stop-color="#F58430" offset="62%"></stop>
            <stop stop-color="#F68B24" offset="80%"></stop>
            <stop stop-color="#F68D20" offset="98%"></stop>
        </linearGradient>
        <linearGradient x1="6583%" y1="-1097%" x2="15697%" y2="6079%" id="linearGradient-7">
            <stop stop-color="#EE499A" offset="0%"></stop>
            <stop stop-color="#F05683" offset="10%"></stop>
            <stop stop-color="#F26A5F" offset="27%"></stop>
            <stop stop-color="#F47944" offset="45%"></stop>
            <stop stop-color="#F58430" offset="62%"></stop>
            <stop stop-color="#F68B24" offset="80%"></stop>
            <stop stop-color="#F68D20" offset="98%"></stop>
        </linearGradient>
        <linearGradient x1="5863%" y1="-183%" x2="14977%" y2="6994%" id="linearGradient-8">
            <stop stop-color="#EE499A" offset="0%"></stop>
            <stop stop-color="#F05683" offset="10%"></stop>
            <stop stop-color="#F26A5F" offset="27%"></stop>
            <stop stop-color="#F47944" offset="45%"></stop>
            <stop stop-color="#F58430" offset="62%"></stop>
            <stop stop-color="#F68B24" offset="80%"></stop>
            <stop stop-color="#F68D20" offset="98%"></stop>
        </linearGradient>
    </defs>
    <g id="Landing" stroke="none" stroke-width="1" fill="none" fill-rule="evenodd">
        <g id="Totemic-1920" transform="translate(-785.000000, -7263.000000)">
            <g id="ROAD-MAP" transform="translate(-12.000000, 6200.000000)">
                <g id="Collectors_ROAD-Map" transform="translate(718.000000, 616.000000)">
                    <g id="_Cards-Icon" transform="translate(79.000000, 448.000000)">
                        <path d="M29.8552448,28.1367114 C26.5836747,28.14981 23.933553,30.8012046 23.9160839,34.0787248 L23.9160839,93.5068456 C23.9335161,96.7812679 26.5788155,99.4313951 29.8472727,99.4488591 L69.4044755,99.4488591 C72.6729328,99.4313951 75.3182322,96.7812679 75.3356643,93.5068456 L75.3356643,34.0787248 C75.3182322,30.8043025 72.6729328,28.1541754 69.4044755,28.1367114 L29.8552448,28.1367114 Z M29.8552448,32.13 L69.4044755,32.13 C69.9327814,32.1167065 70.4434016,32.3211121 70.8170881,32.6954805 C71.1907745,33.069849 71.3948077,33.5814011 71.3815385,34.1106711 L71.3815385,93.5387919 C71.3948077,94.068062 71.1907745,94.5796141 70.8170881,94.9539826 C70.4434016,95.328351 69.9327814,95.5327565 69.4044755,95.5194631 L29.8552448,95.5194631 C29.325326,95.5265003 28.8158525,95.3148365 28.4464252,94.9341606 C28.0769978,94.5534847 27.880152,94.0373227 27.9020979,93.5068456 L27.9020979,34.0787248 C27.8890579,33.5536924 28.0898539,33.0459509 28.4582838,32.6723291 C28.8267136,32.2987072 29.3310489,32.0913805 29.8552448,32.0980537 L29.8552448,32.13 Z M49.4265734,47.9194631 C48.6942424,47.9950817 48.0645071,48.472092 47.7923077,49.1573826 C45.7326648,54.2091801 42.5221155,58.7083233 38.4172028,62.295302 C37.6078797,63.0278855 37.5436688,64.2787089 38.2737063,65.090604 L38.4172028,65.2343624 C42.5163198,68.8230895 45.7213082,73.3220911 47.7763636,78.3722819 C48.0639914,79.1485883 48.8033085,79.6637086 49.6298601,79.6637086 C50.4564118,79.6637086 51.1957288,79.1485883 51.4833566,78.3722819 C53.5405701,73.3278486 56.7454174,68.8345147 60.8425175,65.2503356 C61.6518406,64.5177521 61.7160515,63.2669286 60.986014,62.4550336 L60.8425175,62.295302 C56.746425,58.7133971 53.5416482,54.2228968 51.4833566,49.1813423 C51.1629025,48.3419683 50.3185268,47.8239263 49.4265734,47.9194631 L49.4265734,47.9194631 Z M49.6418182,54.5722819 C51.5913666,57.9735235 54.0274018,61.0705397 56.8724476,63.7648322 C54.0296153,66.4491369 51.5936608,69.535288 49.6418182,72.9254362 C47.6899756,69.535288 45.2540211,66.4491369 42.4111888,63.7648322 C45.2481223,61.079188 47.6786305,57.993132 49.6258741,54.6042282 L49.6418182,54.5722819 Z" id="Shape" fill="url(#linearGradient-1)" fill-rule="nonzero"></path>
                        <path d="M94.914965,35.4204698 L72.0033566,35.4204698 L72.0033566,38.5751678 L94.914965,38.5751678 C95.3424782,38.5593305 95.7572715,38.7225273 96.0597755,39.0255834 C96.3622796,39.3286395 96.5251791,39.7441899 96.5093706,40.1724832 L96.5093706,87.4610067 C96.5251791,87.8893001 96.3622796,88.3048504 96.0597755,88.6079065 C95.7572715,88.9109626 95.3424782,89.0741594 94.914965,89.0583221 L72.2744056,89.0583221 L72.2744056,92.2130201 L94.914965,92.2130201 C97.5070839,92.1786203 99.6000684,90.081816 99.6344056,87.4849664 L99.6344056,40.1485235 C99.6000684,37.5516739 97.5070839,35.4548697 94.914965,35.4204698 Z" id="Shape" fill="url(#linearGradient-2)" fill-rule="nonzero"></path>
                        <path d="M88.2184615,62.7265772 L88.1068531,62.6147651 C84.8473573,59.7636549 82.2976676,56.1892156 80.660979,52.1763087 C80.4152989,51.5771283 79.8327364,51.1859206 79.1861538,51.1859206 C78.5395713,51.1859206 77.9570088,51.5771283 77.7113287,52.1763087 C76.4070336,55.4331354 74.469482,58.3977056 72.0113287,60.897651 L72.0113287,66.6799329 C74.4657396,69.1782426 76.4005002,72.1399739 77.7033566,75.3932886 C77.9490368,75.992469 78.5315992,76.3836767 79.1781818,76.3836767 C79.8247644,76.3836767 80.4073269,75.992469 80.653007,75.3932886 C82.2896956,71.3803818 84.8393853,67.8059424 88.0988811,64.9548322 C88.7358542,64.3677245 88.7889296,63.3787195 88.2184615,62.7265772 L88.2184615,62.7265772 Z M79.1781818,71.0805369 C77.6247314,68.3817994 75.6856041,65.9252145 73.4223776,63.7887919 C75.6874563,61.6450538 77.6266675,59.1802902 79.1781818,56.4730872 C80.7296961,59.1802902 82.6689074,61.6450538 84.933986,63.7887919 C82.6707595,65.9252145 80.7316323,68.3817994 79.1781818,71.0805369 L79.1781818,71.0805369 Z" id="Shape" fill="url(#linearGradient-3)" fill-rule="nonzero"></path>
                        <path d="M27.5433566,89.0104027 L4.71944056,89.0104027 C4.29192742,89.02624 3.8771341,88.8630432 3.57463006,88.5599871 C3.27212602,88.2569309 3.10922653,87.8413806 3.12503497,87.4130872 L3.12503497,40.1485235 C3.10922653,39.7202301 3.27212602,39.3046798 3.57463006,39.0016237 C3.8771341,38.6985676 4.29192742,38.5353708 4.71944056,38.5512081 L27.8383217,38.5512081 C27.2971327,37.5943282 27.1268457,36.4712263 27.36,35.3965101 L4.71944056,35.3965101 C2.11812849,35.431172 0.0214494371,37.542322 0,40.1485235 L0,87.437047 C0.034337199,90.0338966 2.12732166,92.1307008 4.71944056,92.1651007 L27.9818182,92.1651007 C27.4483443,91.2050218 27.2919761,90.0799646 27.5433566,89.0104027 Z" id="Shape" fill="url(#linearGradient-4)" fill-rule="nonzero"></path>
                        <path d="M27.9020979,61.1532215 C25.3256639,58.5983639 23.2965966,55.543773 21.939021,52.1763087 C21.6933409,51.5771283 21.1107784,51.1859206 20.4641958,51.1859206 C19.8176132,51.1859206 19.2350507,51.5771283 18.9893706,52.1763087 C17.3475758,56.1905347 14.7924053,59.7650034 11.5275524,62.6147651 C10.8929497,63.2041124 10.8434191,64.1929896 11.4159441,64.8430201 L11.5275524,64.9548322 C14.7895076,67.8054677 17.3418977,71.3798657 18.9813986,75.3932886 C19.2270787,75.992469 19.8096412,76.3836767 20.4562238,76.3836767 C21.1028064,76.3836767 21.6853688,75.992469 21.931049,75.3932886 C23.2907825,72.0250314 25.3226226,68.9703502 27.9020979,66.4163758 L27.9020979,61.1532215 Z M20.4562238,71.0805369 C18.9027733,68.3817994 16.9636461,65.9252145 14.7004196,63.7887919 C16.9654982,61.6450538 18.9047095,59.1802902 20.4562238,56.4730872 C22.0084994,59.1797746 23.9476276,61.6444326 26.212028,63.7887919 C23.9493076,65.9256795 22.0102425,68.3821856 20.4562238,71.0805369 L20.4562238,71.0805369 Z" id="Shape" fill="url(#linearGradient-5)" fill-rule="nonzero"></path>
                        <rect id="Rectangle-path" fill="#6E44FF" fill-rule="nonzero" opacity="0.05" transform="translate(49.623420, 71.409685) rotate(-45.000000) translate(-49.623420, -71.409685) " x="16.5793638" y="38.3053229" width="66.0881119" height="66.2087248" rx="13.296"></rect>
                        <path d="M91.1123077,4.10510067 L73.7253147,21.5318121" id="Shape" stroke="#F68D20" stroke-width="1.496" opacity="0.62" stroke-linecap="round"></path>
                        <path d="M95.2179021,0 L75.2958042,19.9504698" id="Shape" stroke="#F68D20" stroke-width="1.6" opacity="0.62" stroke-linecap="round"></path>
                        <path d="M101.483916,16.6120805 L88.625035,29.4944295" id="Shape" stroke="#F68D20" stroke-width="1.6" opacity="0.62" stroke-linecap="round"></path>
                        <path d="M104.513287,13.5691946 L89.788951,28.3283893" id="Shape" stroke="#F68D20" stroke-width="1.6" opacity="0.62" stroke-linecap="round"></path>
                        <path d="M59.9257343,6.16563758 L40.0116084,26.1161074" id="Shape" stroke="#F68D20" stroke-width="1.6" opacity="0.62" stroke-linecap="round"></path>
                        <path d="M64.0313287,2.05255034 L44.1092308,22.0110067" id="Shape" stroke="#F68D20" stroke-width="1.6" opacity="0.62" stroke-linecap="round"></path>
                        <path d="M20.5917483,26.8668456 C18.3022769,26.8668456 16.4462937,25.0074752 16.4462937,22.7138255 L16.4462937,17.6902685 L11.4318881,17.6902685 C9.14241679,17.6902685 7.28643357,15.830898 7.28643357,13.5372483 C7.28643357,11.2435986 9.14241679,9.38422819 11.4318881,9.38422819 L16.4462937,9.38422819 L16.4462937,4.36067114 C16.4462937,2.06702146 18.3022769,0.207651007 20.5917483,0.207651007 C22.8812196,0.207651007 24.7372028,2.06702146 24.7372028,4.36067114 L24.7372028,9.38422819 L29.7516084,9.38422819 C32.0410797,9.38422819 33.8970629,11.2435986 33.8970629,13.5372483 C33.8970629,15.830898 32.0410797,17.6902685 29.7516084,17.6902685 L24.7132867,17.6902685 L24.7132867,22.7138255 C24.7133247,24.9981508 22.8718742,26.8536668 20.5917483,26.8668456 Z M11.4318881,11.5725503 C10.3487921,11.5725503 9.47076923,12.4521756 9.47076923,13.5372483 C9.47076923,14.6223211 10.3487921,15.5019463 11.4318881,15.5019463 L18.6067133,15.5019463 L18.6067133,22.6898658 C18.6067133,23.3917848 18.9805004,24.0403847 19.5872727,24.3913442 C20.194045,24.7423037 20.9416193,24.7423037 21.5483916,24.3913442 C22.1551639,24.0403847 22.5289511,23.3917848 22.528951,22.6898658 L22.528951,15.5019463 L29.7037762,15.5019463 C30.7868723,15.5019463 31.6648951,14.6223211 31.6648951,13.5372483 C31.6648951,12.4521756 30.7868723,11.5725503 29.7037762,11.5725503 L22.528951,11.5725503 L22.528951,4.38463087 C22.528951,3.29955814 21.6509282,2.41993289 20.5678322,2.41993289 C19.4847361,2.41993289 18.6067133,3.29955814 18.6067133,4.38463087 L18.6067133,11.5725503 L11.4318881,11.5725503 Z" id="Shape" fill="url(#linearGradient-6)" fill-rule="nonzero"></path>
                        <path d="M6.44937063,106.045772 L8.76923077,106.045772 L8.76923077,108.329933 C8.76923077,109.59144 9.79002154,110.614094 11.0492308,110.614094 C12.30844,110.614094 13.3292308,109.59144 13.3292308,108.329933 L13.3292308,106.045772 L15.6092308,106.045772 C16.86844,106.045772 17.8892308,105.023118 17.8892308,103.761611 C17.8892308,102.500103 16.86844,101.47745 15.6092308,101.47745 L13.2893706,101.47745 L13.2893706,99.1932886 C13.2893706,97.9317813 12.2685799,96.9091275 11.0093706,96.9091275 C9.7501614,96.9091275 8.72937063,97.9317813 8.72937063,99.1932886 L8.72937063,101.47745 L6.44937063,101.47745 C5.1901614,101.47745 4.16937063,102.500103 4.16937063,103.761611 C4.16937063,105.023118 5.1901614,106.045772 6.44937063,106.045772 Z" id="Shape" fill="#F68D20" fill-rule="nonzero" opacity="0.62"></path>
                        <path d="M112.070792,71.0805595 L105.860582,71.0805595 C105.481469,71.0784197 105.117266,71.2283503 104.849188,71.4969171 C104.581111,71.7654838 104.431453,72.1303521 104.433589,72.5101568 L104.433589,78.7317004 C104.431453,79.1115052 104.581111,79.4763734 104.849188,79.7449402 C105.117266,80.0135069 105.481469,80.1634376 105.860582,80.1612978 L112.070792,80.1612978 C112.449905,80.1634376 112.814108,80.0135069 113.082186,79.7449402 C113.350263,79.4763734 113.499921,79.1115052 113.497785,78.7317004 L113.497785,72.5181434 C113.489255,71.7308543 112.856587,71.0934912 112.070792,71.0805595 L112.070792,71.0805595 Z M112.357785,78.7317004 C112.362493,78.8093047 112.333771,78.8852083 112.278896,78.9401841 C112.22402,78.9951598 112.148255,79.0239338 112.070792,79.0192172 L105.860582,79.0192172 C105.783119,79.0239338 105.707354,78.9951598 105.652478,78.9401841 C105.597603,78.8852083 105.568881,78.8093047 105.573589,78.7317004 L105.573589,72.5181434 C105.568881,72.4405391 105.597603,72.3646355 105.652478,72.3096598 C105.707354,72.254684 105.783119,72.22591 105.860582,72.2306266 L112.070792,72.2306266 C112.148255,72.22591 112.22402,72.254684 112.278896,72.3096598 C112.333771,72.3646355 112.362493,72.4405391 112.357785,72.5181434 L112.357785,78.7317004 Z" id="Shape" fill="url(#linearGradient-7)" fill-rule="nonzero" opacity="0.18"></path>
                        <path d="M112.070792,83.0604253 L105.860582,83.0604253 C105.481469,83.0582855 105.117266,83.2082161 104.849188,83.4767829 C104.581111,83.7453496 104.431453,84.1102179 104.433589,84.4900226 L104.433589,90.7115662 C104.431453,91.0913709 104.581111,91.4562392 104.849188,91.7248059 C105.117266,91.9933727 105.481469,92.1433033 105.860582,92.1411635 L112.070792,92.1411635 C112.449905,92.1433033 112.814108,91.9933727 113.082186,91.7248059 C113.350263,91.4562392 113.499921,91.0913709 113.497785,90.7115662 L113.497785,84.4900226 C113.493428,83.7022926 112.857087,83.0647895 112.070792,83.0604253 Z" id="Shape" fill="url(#linearGradient-8)" fill-rule="nonzero" opacity="0.18"></path>
                    </g>
                </g>
            </g>
        </g>
    </g>
</svg>