<?xml version="1.0" encoding="UTF-8"?>
<svg width="119px" height="113px" viewBox="0 0 119 113" version="1.1" xmlns="http://www.w3.org/2000/svg" xmlns:xlink="http://www.w3.org/1999/xlink">
    <!-- Generator: Sketch 46.2 (44496) - http://www.bohemiancoding.com/sketch -->
    <title>_Wallet Icon</title>
    <desc>Created with Sketch.</desc>
    <defs>
        <linearGradient x1="42.2708209%" y1="-88.1965249%" x2="70.4613541%" y2="415.937687%" id="linearGradient-1">
            <stop stop-color="#EE499A" offset="0%"></stop>
            <stop stop-color="#F05683" offset="10%"></stop>
            <stop stop-color="#F26A5F" offset="27%"></stop>
            <stop stop-color="#F47944" offset="45%"></stop>
            <stop stop-color="#F58430" offset="62%"></stop>
            <stop stop-color="#F68B24" offset="80%"></stop>
            <stop stop-color="#F68D20" offset="98%"></stop>
        </linearGradient>
        <linearGradient x1="-5110.24251%" y1="1950%" x2="9243.74218%" y2="13265%" id="linearGradient-2">
            <stop stop-color="#EE499A" offset="0%"></stop>
            <stop stop-color="#F05683" offset="10%"></stop>
            <stop stop-color="#F26A5F" offset="27%"></stop>
            <stop stop-color="#F47944" offset="45%"></stop>
            <stop stop-color="#F58430" offset="62%"></stop>
            <stop stop-color="#F68B24" offset="80%"></stop>
            <stop stop-color="#F68D20" offset="98%"></stop>
        </linearGradient>
        <linearGradient x1="-6251%" y1="3392%" x2="8119%" y2="14707%" id="linearGradient-3">
            <stop stop-color="#EE499A" offset="0%"></stop>
            <stop stop-color="#F05683" offset="10%"></stop>
            <stop stop-color="#F26A5F" offset="27%"></stop>
            <stop stop-color="#F47944" offset="45%"></stop>
            <stop stop-color="#F58430" offset="62%"></stop>
            <stop stop-color="#F68B24" offset="80%"></stop>
            <stop stop-color="#F68D20" offset="98%"></stop>
        </linearGradient>
        <linearGradient x1="8056%" y1="21527.4066%" x2="6656%" y2="-4747.40007%" id="linearGradient-4">
            <stop stop-color="#EE499A" offset="0%"></stop>
            <stop stop-color="#F05683" offset="10%"></stop>
            <stop stop-color="#F26A5F" offset="27%"></stop>
            <stop stop-color="#F47944" offset="45%"></stop>
            <stop stop-color="#F58430" offset="62%"></stop>
            <stop stop-color="#F68B24" offset="80%"></stop>
            <stop stop-color="#F68D20" offset="98%"></stop>
        </linearGradient>
        <linearGradient x1="9816%" y1="21454%" x2="8416%" y2="-4846%" id="linearGradient-5">
            <stop stop-color="#EE499A" offset="0%"></stop>
            <stop stop-color="#F05683" offset="10%"></stop>
            <stop stop-color="#F26A5F" offset="27%"></stop>
            <stop stop-color="#F47944" offset="45%"></stop>
            <stop stop-color="#F58430" offset="62%"></stop>
            <stop stop-color="#F68B24" offset="80%"></stop>
            <stop stop-color="#F68D20" offset="98%"></stop>
        </linearGradient>
    </defs>
    <g id="Landing" stroke="none" stroke-width="1" fill="none" fill-rule="evenodd">
        <g id="Totemic-1920" transform="translate(-1019.000000, -6822.000000)">
            <g id="ROAD-MAP" transform="translate(-12.000000, 6200.000000)">
                <g id="Collectors_ROAD-Map" transform="translate(718.000000, 616.000000)">
                    <g id="_Wallet-Icon" transform="translate(313.000000, 6.000000)">
                        <rect id="Rectangle-path" fill="#6E44FF" fill-rule="nonzero" opacity="0.05" transform="translate(51.572567, 71.081369) rotate(-45.000000) translate(-51.572567, -71.081369) " x="18.5245937" y="38.0333956" width="66.0959459" height="66.0959459" rx="13.296"></rect>
                        <path d="M36.8112162,13.7374324 L16.8947297,33.6539189" id="Shape" stroke="#F68D20" stroke-width="1.6" opacity="0.62" stroke-linecap="round"></path>
                        <path d="M43.5882432,6.96040541 L23.6717568,26.8768919" id="Shape" stroke="#F68D20" stroke-width="1.6" opacity="0.62" stroke-linecap="round"></path>
                        <path d="M109.269595,75.8628378 L85.9247297,99.2156757" id="Shape" stroke="#F68D20" stroke-width="1.744" opacity="0.62" stroke-linecap="round"></path>
                        <path d="M117.218649,67.9217568 L93.8658108,91.2666216" id="Shape" stroke="#F68D20" stroke-width="1.744" opacity="0.62" stroke-linecap="round"></path>
                        <path d="M109.189865,22.4518919 L89.2654054,42.3763514" id="Shape" stroke="#F68D20" stroke-width="1.6" opacity="0.62" stroke-linecap="round"></path>
                        <path d="M113.287973,18.3537838 L93.3714865,38.2702703" id="Shape" stroke="#F68D20" stroke-width="1.6" opacity="0.62" stroke-linecap="round"></path>
                        <path d="M79.4028378,26.6137838 C77.1130951,26.6137838 75.2568919,24.7575806 75.2568919,22.4678378 L75.2568919,17.4528378 L70.2418919,17.4528378 C67.9521492,17.4528378 66.0959459,15.5966346 66.0959459,13.3068919 C66.0959459,11.0171492 67.9521492,9.16094595 70.2418919,9.16094595 L75.2568919,9.16094595 L75.2568919,4.14594595 C75.2568919,1.85620323 77.1130951,-3.13209476e-15 79.4028378,-3.55271368e-15 C81.6925806,-3.97333259e-15 83.5487838,1.85620323 83.5487838,4.14594595 L83.5487838,9.16094595 L88.5637838,9.16094595 C90.8535265,9.16094595 92.7097297,11.0171492 92.7097297,13.3068919 C92.7097297,15.5966346 90.8535265,17.4528378 88.5637838,17.4528378 L83.5487838,17.4528378 L83.5487838,22.4678378 C83.5487838,24.7575806 81.6925806,26.6137838 79.4028378,26.6137838 L79.4028378,26.6137838 Z M70.2418919,11.3455405 C69.1586675,11.3455405 68.2805405,12.2236675 68.2805405,13.3068919 C68.2805405,14.3901163 69.1586675,15.2682432 70.2418919,15.2682432 L77.4175676,15.2682432 L77.4175676,22.4439189 C77.4175676,23.5271434 78.2956945,24.4052703 79.3789189,24.4052703 C80.4621434,24.4052703 81.3402703,23.5271434 81.3402703,22.4439189 L81.3402703,15.2682432 L88.5159459,15.2682432 C89.5991704,15.2682432 90.4772973,14.3901163 90.4772973,13.3068919 C90.4772973,12.2236675 89.5991704,11.3455405 88.5159459,11.3455405 L81.3402703,11.3455405 L81.3402703,4.16986486 C81.3402703,3.08664042 80.4621434,2.20851351 79.3789189,2.20851351 C78.2956945,2.20851351 77.4175676,3.08664042 77.4175676,4.16986486 L77.4175676,11.3455405 L70.2418919,11.3455405 Z" id="Shape" fill="url(#linearGradient-1)" fill-rule="nonzero"></path>
                        <path d="M104.709054,54.0408108 L106.989324,54.0408108 L106.989324,56.3210811 C106.989324,57.5804396 108.010236,58.6013514 109.269595,58.6013514 C110.528953,58.6013514 111.549865,57.5804396 111.549865,56.3210811 L111.549865,54.0408108 L113.830135,54.0408108 C115.089494,54.0408108 116.110405,53.019899 116.110405,51.7605405 C116.110405,50.501182 115.089494,49.4802703 113.830135,49.4802703 L111.549865,49.4802703 L111.549865,47.2 C111.549865,45.9406415 110.528953,44.9197297 109.269595,44.9197297 C108.010236,44.9197297 106.989324,45.9406415 106.989324,47.2 L106.989324,49.4802703 L104.709054,49.4802703 C103.449696,49.4802703 102.428784,50.501182 102.428784,51.7605405 C102.428784,53.019899 103.449696,54.0408108 104.709054,54.0408108 L104.709054,54.0408108 Z" id="Shape" fill="#F68D20" fill-rule="nonzero" opacity="0.62"></path>
                        <path d="M2.64702703,92.4864865 L3.88283784,92.4864865 L3.88283784,93.7302703 C3.9347048,94.3765302 4.47429723,94.8745515 5.12263514,94.8745515 C5.77097304,94.8745515 6.31056547,94.3765302 6.36243243,93.7302703 L6.36243243,92.4864865 L7.60621622,92.4864865 C8.07288797,92.5239402 8.52105884,92.2961672 8.76588383,91.8971107 C9.01070882,91.4980543 9.01070882,90.9953241 8.76588383,90.5962676 C8.52105884,90.1972112 8.07288797,89.9694382 7.60621622,90.0068919 L6.37837838,90.0068919 L6.37837838,88.7631081 C6.41583211,88.2964364 6.18805905,87.8482655 5.78900263,87.6034405 C5.3899462,87.3586155 4.88721596,87.3586155 4.48815953,87.6034405 C4.08910311,87.8482655 3.86133005,88.2964364 3.89878378,88.7631081 L3.89878378,90.0068919 L2.64702703,90.0068919 C2.00076712,90.0587589 1.50274582,90.5983513 1.50274582,91.2466892 C1.50274582,91.8950271 2.00076712,92.4346195 2.64702703,92.4864865 L2.64702703,92.4864865 Z" id="Shape" fill="#F68D20" fill-rule="nonzero" opacity="0.62"></path>
                        <path d="M12.5654054,46.5382432 L2.77459459,46.5382432 C2.17421357,46.5317754 1.59653616,46.7674199 1.17197803,47.191978 C0.747419906,47.6165362 0.511775378,48.1942136 0.518243243,48.7945946 L0.518243243,58.5774324 C0.511775378,59.1778135 0.747419906,59.7554909 1.17197803,60.180049 C1.59653616,60.6046071 2.17421357,60.8402516 2.77459459,60.8337838 L12.5654054,60.8337838 C13.1657864,60.8402516 13.7434638,60.6046071 14.168022,60.180049 C14.5925801,59.7554909 14.8282246,59.1778135 14.8217568,58.5774324 L14.8217568,48.7945946 C14.8046059,47.5556198 13.8043802,46.5553941 12.5654054,46.5382432 L12.5654054,46.5382432 Z M13.0198649,58.5854054 C13.0295779,58.7086576 12.9848264,58.8299811 12.8974038,58.9174038 C12.8099811,59.0048264 12.6886576,59.0495779 12.5654054,59.0398649 L2.77459459,59.0398649 C2.65134244,59.0495779 2.53001888,59.0048264 2.44259623,58.9174038 C2.35517359,58.8299811 2.31042212,58.7086576 2.32013514,58.5854054 L2.32013514,48.7945946 C2.31042212,48.6713424 2.35517359,48.5500189 2.44259623,48.4625962 C2.53001888,48.3751736 2.65134244,48.3304221 2.77459459,48.3401351 L12.5654054,48.3401351 C12.6886576,48.3304221 12.8099811,48.3751736 12.8974038,48.4625962 C12.9848264,48.5500189 13.0295779,48.6713424 13.0198649,48.7945946 L13.0198649,58.5854054 Z" id="Shape" fill="url(#linearGradient-2)" fill-rule="nonzero" opacity="0.18"></path>
                        <path d="M12.5654054,65.1631081 L2.77459459,65.1631081 C2.17421357,65.1566402 1.59653616,65.3922848 1.17197803,65.8168429 C0.747419906,66.241401 0.511775378,66.8190784 0.518243243,67.4194595 L0.518243243,77.2102703 C0.511775378,77.8106513 0.747419906,78.3883287 1.17197803,78.8128868 C1.59653616,79.237445 2.17421357,79.4730895 2.77459459,79.4666216 L12.5654054,79.4666216 C13.1657864,79.4730895 13.7434638,79.237445 14.168022,78.8128868 C14.5925801,78.3883287 14.8282246,77.8106513 14.8217568,77.2102703 L14.8217568,67.4194595 C14.817383,66.1751272 13.8097377,65.1674819 12.5654054,65.1631081 L12.5654054,65.1631081 Z" id="Shape" fill="url(#linearGradient-3)" fill-rule="nonzero" opacity="0.18"></path>
                        <path d="M75.5917568,35.2963514 L66.6381081,26.3108108 C64.5991257,24.3028027 61.3260095,24.3028027 59.287027,26.3108108 L18.5451351,67.0925676 C16.537127,69.13155 16.537127,72.4046662 18.5451351,74.4436486 L50.6124324,106.510946 C52.6514149,108.518954 55.9245311,108.518954 57.9635135,106.510946 L98.7054054,65.7610811 C100.713414,63.7220987 100.713414,60.4489824 98.7054054,58.41 L89.7517568,49.4324324 C89.8096498,48.4939456 89.4712541,47.5742034 88.8189189,46.897027 L78.1351351,36.2291892 C77.4454973,35.5917849 76.5299764,35.2559982 75.5917568,35.2963514 Z M86.3472973,50.0622973 L77.4654054,58.9441892 C74.3302192,62.0815771 69.2452933,62.0833619 66.1079054,58.9481757 C62.9705175,55.8129895 62.9687327,50.7280635 66.1039189,47.5906757 L74.9937838,38.7008108 L86.3472973,50.0622973 Z M96.7121622,63.7598649 L55.9543243,104.501757 C55.5148101,104.951273 54.912666,105.204667 54.2839865,105.204667 C53.6553069,105.204667 53.0531629,104.951273 52.6136486,104.501757 L20.5463514,72.4424324 C20.0968347,72.0029182 19.8434409,71.4007741 19.8434409,70.7720946 C19.8434409,70.143415 20.0968347,69.541271 20.5463514,69.1017568 L61.2962162,28.3518919 C61.7357305,27.9023753 62.3378745,27.6489814 62.9665541,27.6489814 C63.5952336,27.6489814 64.1973776,27.9023753 64.6368919,28.3518919 L72.9845946,36.6756757 L64.1027027,45.5814865 C60.0347452,49.8528418 60.1168865,56.5894287 64.287783,60.7603251 C68.4586794,64.9312216 75.1952663,65.0133629 79.4666216,60.9454054 L88.3485135,52.0635135 L96.6962162,60.4112162 C97.1568109,60.8507174 97.4180807,61.4591625 97.4195858,62.0957993 C97.4210908,62.7324362 97.1627008,63.3421098 96.7041892,63.7837838 L96.7121622,63.7598649 Z" id="Shape" fill="url(#linearGradient-4)" fill-rule="nonzero"></path>
                        <circle id="Oval" fill="url(#linearGradient-5)" fill-rule="nonzero" transform="translate(71.987733, 53.068392) rotate(-45.000000) translate(-71.987733, -53.068392) " cx="71.9877327" cy="53.068392" r="2.83040541"></circle>
                    </g>
                </g>
            </g>
        </g>
    </g>
</svg>