<?xml version="1.0" encoding="UTF-8"?>
<svg width="135px" height="105px" viewBox="0 0 135 105" version="1.1" xmlns="http://www.w3.org/2000/svg" xmlns:xlink="http://www.w3.org/1999/xlink">
    <!-- Generator: Sketch 46.2 (44496) - http://www.bohemiancoding.com/sketch -->
    <title>_Sell Icon</title>
    <desc>Created with Sketch.</desc>
    <defs>
        <linearGradient x1="42.2921887%" y1="-88.0278624%" x2="70.4651923%" y2="415.694384%" id="linearGradient-1">
            <stop stop-color="#EE499A" offset="0%"></stop>
            <stop stop-color="#F05683" offset="10%"></stop>
            <stop stop-color="#F26A5F" offset="27%"></stop>
            <stop stop-color="#F47944" offset="45%"></stop>
            <stop stop-color="#F58430" offset="62%"></stop>
            <stop stop-color="#F68B24" offset="80%"></stop>
            <stop stop-color="#F68D20" offset="98%"></stop>
        </linearGradient>
        <linearGradient x1="15.3346106%" y1="-99.3106138%" x2="100%" y2="253.034737%" id="linearGradient-2">
            <stop stop-color="#EE499A" offset="0%"></stop>
            <stop stop-color="#F05683" offset="13.8919622%"></stop>
            <stop stop-color="#F26A5F" offset="27%"></stop>
            <stop stop-color="#F47944" offset="45%"></stop>
            <stop stop-color="#F58430" offset="62%"></stop>
            <stop stop-color="#F68B24" offset="80%"></stop>
            <stop stop-color="#F68D20" offset="100%"></stop>
        </linearGradient>
        <linearGradient x1="43%" y1="-1950%" x2="11643%" y2="13550%" id="linearGradient-3">
            <stop stop-color="#EE499A" offset="0%"></stop>
            <stop stop-color="#F05683" offset="10%"></stop>
            <stop stop-color="#F26A5F" offset="27%"></stop>
            <stop stop-color="#F47944" offset="45%"></stop>
            <stop stop-color="#F58430" offset="62%"></stop>
            <stop stop-color="#F68B24" offset="80%"></stop>
            <stop stop-color="#F68D20" offset="98%"></stop>
        </linearGradient>
    </defs>
    <g id="Landing" stroke="none" stroke-width="1" fill="none" fill-rule="evenodd">
        <g id="Totemic-1024" transform="translate(-590.000000, -6791.000000)">
            <g id="ROAD-MAP" transform="translate(-6.000000, 5647.000000)">
                <g id="Creators_ROAD-MAP" transform="translate(279.000000, 545.000000)">
                    <g id="_Sell-Icon" transform="translate(317.000000, 600.000000)">
                        <rect id="Rectangle-path" fill="#6E44FF" fill-rule="nonzero" opacity="0.05" transform="translate(57.101797, 61.960683) rotate(-45.000000) translate(-57.101797, -61.960683) " x="23.8425153" y="28.7397274" width="66.5185629" height="66.4419118" rx="13.296"></rect>
                        <path d="M58.1495808,7.49375 L48.4646707,17.3838971" id="Shape" stroke="#F68D20" stroke-width="1.6" opacity="0.62" stroke-linecap="round"></path>
                        <path d="M115.954132,39.3922794 L106.269222,49.2824265" id="Shape" stroke="#F68D20" stroke-width="1.6" opacity="0.62" stroke-linecap="round"></path>
                        <path d="M113.402515,41.9409559 L103.717605,51.8311029" id="Shape" stroke="#F68D20" stroke-width="1.6" opacity="0.62" stroke-linecap="round"></path>
                        <path d="M94.3456287,0 L84.6607186,9.89014706" id="Shape" stroke="#F68D20" stroke-width="1.6" opacity="0.62" stroke-linecap="round"></path>
                        <path d="M91.794012,2.54867647 L82.1091018,12.4388235" id="Shape" stroke="#F68D20" stroke-width="1.6" opacity="0.62" stroke-linecap="round"></path>
                        <path d="M10.4873054,44.5858088 L0.80239521,54.4839706" id="Shape" stroke="#F68D20" stroke-width="1.6" opacity="0.62" stroke-linecap="round"></path>
                        <path d="M131.159521,7.9025 L111.115689,27.9232353" id="Shape" stroke="#F68D20" stroke-width="1.6" opacity="0.62" stroke-linecap="round"></path>
                        <path d="M134,5.06529412 L113.948144,25.0940441" id="Shape" stroke="#F68D20" stroke-width="1.6" opacity="0.62" stroke-linecap="round"></path>
                        <path d="M18.6396407,100.015515 C15.4729462,100.0111 12.9069346,97.4480455 12.902515,94.285 L12.902515,87.3602941 L5.96179641,87.3602941 C2.79326935,87.3602941 0.224670659,84.7946553 0.224670659,81.6297794 C0.224670659,78.4649035 2.79326935,75.8992647 5.96179641,75.8992647 L12.902515,75.8992647 L12.902515,68.9264706 C12.902515,65.7615947 15.4711137,63.1959559 18.6396407,63.1959559 C21.8081678,63.1959559 24.3767665,65.7615947 24.3767665,68.9264706 L24.3767665,75.8591912 L31.2934132,75.8591912 C34.473019,75.8591912 37.0505988,78.4338008 37.0505988,81.6097426 C37.0505988,84.7856845 34.473019,87.3602941 31.2934132,87.3602941 L24.3767665,87.3602941 L24.3767665,94.2930147 C24.3679327,97.4529298 21.8032105,100.011114 18.6396407,100.015515 Z M5.96179641,78.9047794 C4.51902945,78.9831362 3.38935879,80.1745243 3.38935879,81.6177574 C3.38935879,83.0609904 4.51902945,84.2523785 5.96179641,84.3307353 L15.9275449,84.3307353 L15.9275449,94.285 C15.8728678,95.2894394 16.3782648,96.2418568 17.2411649,96.7605085 C18.1040651,97.2791602 19.1832403,97.2791602 20.0461404,96.7605085 C20.9090406,96.2418568 21.4144376,95.2894394 21.3597605,94.285 L21.3597605,84.33875 L31.2934132,84.33875 C32.2990113,84.3933641 33.2525275,83.8885495 33.7717775,83.0266437 C34.2910276,82.1647379 34.2910276,81.0868062 33.7717775,80.2249004 C33.2525275,79.3629946 32.2990113,78.85818 31.2934132,78.9127941 L21.3597605,78.9127941 L21.3597605,68.9264706 C21.4144376,67.9220312 20.9090406,66.9696138 20.0461404,66.4509621 C19.1832403,65.9323104 18.1040651,65.9323104 17.2411649,66.4509621 C16.3782648,66.9696138 15.8728678,67.9220312 15.9275449,68.9264706 L15.9275449,78.9047794 L5.96179641,78.9047794 Z" id="Shape" fill="url(#linearGradient-1)" fill-rule="nonzero"></path>
                        <path d="M68.8615569,23.0663235 L71.1564072,23.0663235 L71.1564072,25.3585294 C71.1564072,26.6244798 72.1838467,27.6507353 73.4512575,27.6507353 C74.7186683,27.6507353 75.7461078,26.6244798 75.7461078,25.3585294 L75.7461078,23.0663235 L78.0409581,23.0663235 C78.8608292,23.0663236 79.6184213,22.6294316 80.0283568,21.9202206 C80.4382924,21.2110096 80.4382924,20.3372257 80.0283568,19.6280147 C79.6184213,18.9188037 78.8608292,18.4819117 78.0409581,18.4819118 L75.7461078,18.4819118 L75.7461078,16.1897059 C75.7461078,14.9237555 74.7186683,13.8975 73.4512575,13.8975 C72.1838467,13.8975 71.1564072,14.9237555 71.1564072,16.1897059 L71.1564072,18.4819118 L68.8615569,18.4819118 C68.0416858,18.4819117 67.2840937,18.9188037 66.8741581,19.6280147 C66.4642226,20.3372257 66.4642226,21.2110096 66.8741581,21.9202206 C67.2840937,22.6294316 68.0416858,23.0663236 68.8615569,23.0663235 Z" id="Shape" fill="#F68D20" fill-rule="nonzero" opacity="0.62"></path>
                        <path d="M94.1450299,41.6764706 L96.4398802,41.6764706 L96.4398802,43.9686765 C96.4398802,45.2346268 97.4673197,46.2608824 98.7347305,46.2608824 C100.002141,46.2608824 101.029581,45.2346268 101.029581,43.9686765 L101.029581,41.6764706 L103.324431,41.6764706 C104.591842,41.6764706 105.619281,40.6502151 105.619281,39.3842647 C105.619281,38.1183144 104.591842,37.0920588 103.324431,37.0920588 L101.029581,37.0920588 L101.029581,34.8078676 C101.029581,33.5419173 100.002141,32.5156618 98.7347305,32.5156618 C97.4673197,32.5156618 96.4398802,33.5419173 96.4398802,34.8078676 L96.4398802,37.1000735 L94.1450299,37.1000735 C92.8776191,37.1000735 91.8501796,38.1263291 91.8501796,39.3922794 C91.8501796,40.6582298 92.8776191,41.6844853 94.1450299,41.6844853 L94.1450299,41.6764706 Z" id="Shape" fill="#F68D20" fill-rule="nonzero" opacity="0.62"></path>
                        <path d="M21.1752096,39.0075735 L22.4269461,39.0075735 L22.4269461,40.2578676 C22.4791447,40.9075103 23.0221873,41.4081384 23.6746707,41.4081384 C24.327154,41.4081384 24.8701966,40.9075103 24.9223952,40.2578676 L24.9223952,39.0075735 L26.1741317,39.0075735 C26.6437874,39.0452233 27.0948239,38.816258 27.3412143,38.4151128 C27.5876047,38.0139676 27.5876047,37.5086059 27.3412143,37.1074607 C27.0948239,36.7063155 26.6437874,36.4773502 26.1741317,36.515 L24.9143713,36.515 L24.9143713,35.2647059 C24.9520645,34.7955914 24.722835,34.3450747 24.321227,34.0989682 C23.9196191,33.8528617 23.4136744,33.8528617 23.0120664,34.0989682 C22.6104584,34.3450747 22.3812289,34.7955914 22.4189222,35.2647059 L22.4189222,36.515 L21.1752096,36.515 C20.7055539,36.4773502 20.2545175,36.7063155 20.0081271,37.1074607 C19.7617367,37.5086059 19.7617367,38.0139676 20.0081271,38.4151128 C20.2545175,38.816258 20.7055539,39.0452233 21.1752096,39.0075735 L21.1752096,39.0075735 Z" id="Shape" fill="#F68D20" fill-rule="nonzero" opacity="0.62"></path>
                        <path d="M33.2271856,50.7491176 L33.2271856,37.0439706 C33.2271856,34.1426471 35.000479,32.3633824 37.9131737,32.3633824 L45.3353293,32.3633824 C51.9550898,32.3633824 58.5748503,32.3633824 65.1946108,32.2030882 C66.717008,32.2259527 68.1648865,32.8651775 69.2065868,33.9743382 C77.2786826,42.0371324 85.5112575,50.0999265 93.5913772,58.0184559 L103.115808,67.5319118 C105.373214,69.7920588 105.373214,72.0495343 103.115808,74.3043382 L75.6899401,102.035221 C74.9977362,103.044376 73.849473,103.644868 72.6247904,103.638162 C71.3689163,103.60959 70.1916181,103.021619 69.4152096,102.035221 L63.7984431,96.5531618 C54.3783234,87.2 44.8538922,77.8468382 35.4819162,68.6539706 C34.1213472,67.427645 33.3553587,65.6754941 33.3796407,63.8451471 M36.5892216,63.8451471 C36.555432,64.8212742 36.9689838,65.759545 37.7125749,66.3938235 C47.1086228,75.7469853 56.6410778,84.9558824 66.0050299,94.2930147 L71.6217964,99.7750735 C72.4241916,100.576544 72.9136527,100.576544 73.7240719,99.7750735 L101.174012,72.0361765 C102.14491,71.0663971 102.14491,70.7458088 101.174012,69.7760294 L91.5131737,60.4308824 C83.4491018,52.3680882 75.208503,44.3052941 67.1364072,36.4027941 C66.7094132,35.8433576 66.0650056,35.4909437 65.3631138,35.4330147 C58.7433533,35.4330147 52.1235928,35.4330147 45.3032335,35.5933088 L37.9051497,35.5933088 C36.6132934,35.5933088 36.4528144,35.9138971 36.4528144,37.19625" id="Shape" fill="url(#linearGradient-2)" fill-rule="nonzero"></path>
                        <path d="M48.2239521,54.5 C44.346384,54.5 41.202994,51.3602322 41.202994,47.4871324 C41.202994,43.6140325 44.346384,40.4742647 48.2239521,40.4742647 C52.1015202,40.4742647 55.2449102,43.6140325 55.2449102,47.4871324 C55.2360858,51.3565753 52.0978591,54.4911857 48.2239521,54.5 L48.2239521,54.5 Z M48.2239521,43.2072794 C45.8619592,43.2072794 43.9471856,45.1198465 43.9471856,47.4791176 C43.9471856,49.8383888 45.8619592,51.7509559 48.2239521,51.7509559 C50.585945,51.7509559 52.5007186,49.8383888 52.5007186,47.4791176 C52.5028486,46.3440295 52.0534582,45.2545866 51.2514085,44.450455 C50.4493588,43.6463234 49.3603498,43.1933736 48.2239521,43.19125 L48.2239521,43.2072794 Z" id="Shape" fill="url(#linearGradient-3)" fill-rule="nonzero"></path>
                    </g>
                </g>
            </g>
        </g>
    </g>
</svg>