<?xml version="1.0" encoding="UTF-8"?>
<svg width="141px" height="96px" viewBox="0 0 141 96" version="1.1" xmlns="http://www.w3.org/2000/svg" xmlns:xlink="http://www.w3.org/1999/xlink">
    <!-- Generator: Sketch 46.2 (44496) - http://www.bohemiancoding.com/sketch -->
    <title>_Arrows Icon</title>
    <desc>Created with Sketch.</desc>
    <defs>
        <linearGradient x1="-74.7434339%" y1="47.8602218%" x2="206.472452%" y2="54.5814919%" id="linearGradient-1">
            <stop stop-color="#EE499A" offset="0%"></stop>
            <stop stop-color="#F05683" offset="10%"></stop>
            <stop stop-color="#F26A5F" offset="27%"></stop>
            <stop stop-color="#F47944" offset="45%"></stop>
            <stop stop-color="#F58430" offset="62%"></stop>
            <stop stop-color="#F68B24" offset="80%"></stop>
            <stop stop-color="#F68D20" offset="98%"></stop>
        </linearGradient>
        <linearGradient x1="-16061.7801%" y1="-28611%" x2="-14714.8837%" y2="-4503%" id="linearGradient-2">
            <stop stop-color="#EE499A" offset="0%"></stop>
            <stop stop-color="#F05683" offset="10%"></stop>
            <stop stop-color="#F26A5F" offset="27%"></stop>
            <stop stop-color="#F47944" offset="45%"></stop>
            <stop stop-color="#F58430" offset="62%"></stop>
            <stop stop-color="#F68B24" offset="80%"></stop>
            <stop stop-color="#F68D20" offset="100%"></stop>
        </linearGradient>
    </defs>
    <g id="Landing" stroke="none" stroke-width="1" fill="none" fill-rule="evenodd">
        <g id="Totemic-1024" transform="translate(-304.000000, -7093.000000)">
            <g id="ROAD-MAP" transform="translate(-6.000000, 5647.000000)">
                <g id="Creators_ROAD-MAP" transform="translate(279.000000, 545.000000)">
                    <g id="_Arrows-Icon" transform="translate(31.000000, 901.000000)">
                        <rect id="Rectangle-path" fill="#6E44FF" fill-rule="nonzero" opacity="0.05" transform="translate(65.557233, 52.074965) rotate(-45.000000) translate(-65.557233, -52.074965) " x="32.3501305" y="18.98182" width="66.4142045" height="66.1862903" rx="13.296"></rect>
                        <path d="M61.3964454,48.4336698 C61.6514085,48.6878782 61.8219798,49.0139169 61.8851386,49.3677827 L66.2272977,73.3193956 L90.2613886,77.6466536 C91.0551478,77.7818382 91.6518562,78.4425723 91.703434,79.2434278 C91.7553322,80.0752407 91.2288197,80.8342489 90.4296272,81.0797181 L47.1682636,94.5006052 L47.1682636,94.5006052 C46.5385431,94.7034519 45.8478705,94.5376488 45.3799076,94.0712919 C44.9119447,93.6049349 44.7455706,92.9166324 44.9491158,92.289073 L58.4162181,49.1761698 C58.6625326,48.3797199 59.4241546,47.8550142 60.2588318,47.9067343 C60.690434,47.9359105 61.095812,48.1236791 61.3964454,48.4336698 Z M47.7370704,91.7701214 L86.9927522,79.602702 L65.2819568,75.6985891 C64.5613579,75.5654194 63.9975737,75.0035699 63.8639454,74.285444 L59.9463886,52.6651214 L47.7370704,91.7701214 Z" id="Shape" fill="url(#linearGradient-1)" fill-rule="nonzero"></path>
                        <path d="M37.9747863,0.785055794 C38.2297493,1.03926423 38.4003207,1.36530292 38.4634795,1.7191687 L42.8056386,25.6707816 L66.8397295,29.9980397 C67.6334887,30.1332242 68.2301971,30.7939583 68.2817749,31.5948139 C68.3336731,32.4266267 67.8071606,33.1856349 67.0079681,33.4311042 L23.7466045,46.8519913 L23.7466045,46.8519913 C23.116884,47.054838 22.4262114,46.8890349 21.9582485,46.4226779 C21.4902856,45.9563209 21.3239115,45.2680185 21.5274567,44.640459 L34.994559,1.52755579 C35.2408735,0.731105913 36.0024954,0.20640021 36.8371726,0.25812031 C37.2687749,0.287296552 37.6741529,0.475065099 37.9747863,0.785055794 Z M24.3154113,44.1215074 L63.5710931,31.9540881 L41.8602976,28.0499751 C41.1396988,27.9168055 40.5759145,27.3549559 40.4422863,26.63683 L36.5247295,5.01650741 L24.3154113,44.1215074 Z" id="Shape-Copy-6" fill="url(#linearGradient-1)" fill-rule="nonzero" transform="translate(44.863636, 23.595895) rotate(-180.000000) translate(-44.863636, -23.595895) "></path>
                        <path d="M82.3247727,43.2805645 L72.6550568,53.1326613" id="Shape" stroke="#F68D20" stroke-width="1.6" opacity="0.62" stroke-linecap="round"></path>
                        <path d="M79.7771591,45.8194355 L70.1074432,55.6715323" id="Shape" stroke="#F68D20" stroke-width="1.6" opacity="0.62" stroke-linecap="round"></path>
                        <path d="M133.741705,9.16548387 L124.071989,19.0175806" id="Shape" stroke="#F68D20" stroke-width="1.6" opacity="0.62" stroke-linecap="round"></path>
                        <path d="M131.194091,11.7043548 L121.524375,21.5564516" id="Shape" stroke="#F68D20" stroke-width="1.6" opacity="0.62" stroke-linecap="round"></path>
                        <path d="M138.284148,37.4283871 L123.999886,51.6556452" id="Shape" stroke="#F68D20" stroke-width="1.144" opacity="0.62" stroke-linecap="round"></path>
                        <path d="M140.303011,35.4164516 L126.026761,49.6437097" id="Shape" stroke="#F68D20" stroke-width="1.144" opacity="0.62" stroke-linecap="round"></path>
                        <path d="M86.0420455,56.8132258 C83.6676464,54.4416225 83.6676464,50.6021678 86.0420455,48.2305645 L91.2494318,43.0410484 L86.0420455,37.8515323 C84.5036213,36.3183875 83.9027982,34.0837803 84.4659006,31.9894656 C85.0290029,29.8951509 86.670482,28.2593049 88.7720085,27.6981349 C90.873535,27.136965 93.1158372,27.7357262 94.6542614,29.268871 L99.8616477,34.4583871 L105.069034,29.268871 C107.460739,26.9937003 111.237341,27.036576 113.576416,29.3654551 C115.91549,31.6943342 115.962028,35.4579348 113.68125,37.8435484 L108.473864,43.0330645 L113.68125,48.2225806 C115.219674,49.7557254 115.820497,51.9903326 115.257395,54.0846474 C114.694293,56.1789621 113.052814,57.8148081 110.951287,58.375978 C108.84976,58.937148 106.607458,58.3383867 105.069034,56.8052419 L99.8616477,51.6157258 L94.6542614,56.8052419 C92.2767007,59.1737003 88.4240236,59.1772719 86.0420455,56.8132258 Z M92.3870455,31.5283065 C91.2542527,30.4467744 89.4617692,30.4659143 88.35249,31.5713867 C87.2432108,32.6768592 87.2240051,34.4631914 88.3092614,35.5920968 L95.7838636,43.0410484 L88.3092614,50.49 C87.5545848,51.2105262 87.2500985,52.2815449 87.513378,53.289489 C87.7766575,54.2974331 88.5665013,55.0845665 89.5779163,55.3469424 C90.5893313,55.6093184 91.6640381,55.3058771 92.3870455,54.5537903 L99.8616477,47.1048387 L107.352273,54.5537903 C108.07528,55.3058771 109.149987,55.6093184 110.161402,55.3469424 C111.172817,55.0845665 111.962661,54.2974331 112.22594,53.289489 C112.48922,52.2815449 112.184733,51.2105262 111.430057,50.49 L103.955455,43.0410484 L111.430057,35.5920968 C112.159914,34.8661706 112.445719,33.8073492 112.179812,32.8144804 C111.913905,31.8216116 111.136684,31.0455358 110.14092,30.7785933 C109.145156,30.5116508 108.08213,30.7943964 107.352273,31.5203226 L99.8776705,38.9692742 L92.3870455,31.5283065 Z" id="Shape" fill="url(#linearGradient-2)" fill-rule="nonzero"></path>
                        <path d="M98.7560795,15.3370161 L100.358352,16.9337903 L98.7560795,18.5305645 C98.0817116,19.4395034 98.1761947,20.703367 98.9782676,21.5026874 C99.7803404,22.3020077 101.048556,22.3961666 101.960625,21.7241129 L103.562898,20.1273387 L105.16517,21.7241129 C105.700424,22.4455476 106.610023,22.7877327 107.490133,22.5987477 C108.370242,22.4097627 109.057727,21.7246375 109.247363,20.8475482 C109.436998,19.9704589 109.093635,19.0639808 108.369716,18.5305645 L106.767443,16.9337903 L108.369716,15.3370161 C109.093635,14.8035999 109.436998,13.8971217 109.247363,13.0200324 C109.057727,12.1429432 108.370242,11.4578179 107.490133,11.2688329 C106.610023,11.079848 105.700424,11.4220331 105.16517,12.1434677 L103.562898,13.7402419 L101.960625,12.1434677 C101.048556,11.4714141 99.7803404,11.5655729 98.9782676,12.3648933 C98.1761947,13.1642136 98.0817116,14.4280772 98.7560795,15.3370161 L98.7560795,15.3370161 Z" id="Shape" fill="#F68D20" fill-rule="nonzero" opacity="0.62"></path>
                        <path d="M126.499432,29.7 L127.380682,30.5782258 L126.499432,31.4564516 C126.144049,31.7612178 125.989724,32.2385702 126.099739,32.6927657 C126.209754,33.1469612 126.565601,33.5015866 127.02136,33.6112243 C127.47712,33.7208619 127.956116,33.5670664 128.261932,33.2129032 L129.143182,32.3346774 L130.024432,33.2129032 C130.330247,33.5670664 130.809244,33.7208619 131.265003,33.6112243 C131.720763,33.5015866 132.076609,33.1469612 132.186624,32.6927657 C132.29664,32.2385702 132.142315,31.7612178 131.786932,31.4564516 L130.905682,30.5782258 L131.786932,29.7 C132.142315,29.3952338 132.29664,28.9178814 132.186624,28.4636859 C132.076609,28.0094904 131.720763,27.654865 131.265003,27.5452274 C130.809244,27.4355897 130.330247,27.5893852 130.024432,27.9435484 L129.143182,28.8217742 L128.261932,27.9435484 C127.956116,27.5893852 127.47712,27.4355897 127.02136,27.5452274 C126.565601,27.654865 126.209754,28.0094904 126.099739,28.4636859 C125.989724,28.9178814 126.144049,29.3952338 126.499432,29.7 Z" id="Shape" fill="#F68D20" fill-rule="nonzero" opacity="0.62"></path>
                        <path d="M20.885625,24.75 L11.2159091,34.6020968" id="Shape" stroke="#F68D20" stroke-width="1.6" opacity="0.62" stroke-linecap="round"></path>
                        <path d="M35.6585795,37.0850806 L25.9888636,46.9371774" id="Shape" stroke="#F68D20" stroke-width="1.6" opacity="0.62" stroke-linecap="round"></path>
                        <path d="M33.1109659,39.6239516 L23.44125,49.4760484" id="Shape" stroke="#F68D20" stroke-width="1.6" opacity="0.62" stroke-linecap="round"></path>
                        <path d="M25.1877273,47.7195968 L15.5180114,57.5716935" id="Shape" stroke="#F68D20" stroke-width="1.6" opacity="0.62" stroke-linecap="round"></path>
                        <path d="M37.5332386,75.2320161 L17.5208523,95.1757258" id="Shape" stroke="#F68D20" stroke-width="1.6" opacity="0.62" stroke-linecap="round"></path>
                        <path d="M40.3692614,72.4057258 L20.3488636,92.3574194" id="Shape" stroke="#F68D20" stroke-width="1.6" opacity="0.62" stroke-linecap="round"></path>
                        <path d="M0.672954545,69.858871 L2.27522727,71.4556452 L0.672954545,73.0524194 C-0.00141335623,73.9613583 0.0930697364,75.2252218 0.895142575,76.0245422 C1.69721541,76.8238626 2.96543114,76.9180214 3.8775,76.2459677 L5.47977273,74.6491935 L7.08204545,76.2459677 C7.61729856,76.9674024 8.5268982,77.3095875 9.40700773,77.1206025 C10.2871173,76.9316176 10.9746018,76.2464923 11.1642375,75.369403 C11.3538733,74.4923138 11.0105098,73.5858356 10.2865909,73.0524194 L8.68431818,71.4556452 L10.2865909,69.858871 C11.0105098,69.3254547 11.3538733,68.4189765 11.1642375,67.5418873 C10.9746018,66.664798 10.2871173,65.9796727 9.40700773,65.7906878 C8.5268982,65.6017028 7.61729856,65.9438879 7.08204545,66.6653226 L5.47977273,68.2620968 L3.8775,66.6653226 C2.96543114,65.9932689 1.69721541,66.0874278 0.895142575,66.8867481 C0.0930697364,67.6860685 -0.00141335623,68.9499321 0.672954545,69.858871 L0.672954545,69.858871 Z" id="Shape" fill="#F68D20" fill-rule="nonzero" opacity="0.62"></path>
                        <path d="M29.4257386,59.8790323 L30.3069886,60.7572581 L29.4257386,61.6354839 C28.9991638,62.1294975 29.0268905,62.8677113 29.4893293,63.3285631 C29.951768,63.7894149 30.6925239,63.8170464 31.1882386,63.3919355 L32.0694886,62.5137097 L32.9507386,63.3919355 C33.4464534,63.8170464 34.1872093,63.7894149 34.649648,63.3285631 C35.1120868,62.8677113 35.1398134,62.1294975 34.7132386,61.6354839 L33.8319886,60.7572581 L34.7132386,59.8790323 C35.1398134,59.3850187 35.1120868,58.6468048 34.649648,58.185953 C34.1872093,57.7251013 33.4464534,57.6974697 32.9507386,58.1225806 L32.0454545,59.0167742 L31.1642045,58.1385484 C30.6684898,57.7134375 29.9277339,57.741069 29.4652952,58.2019208 C29.0028564,58.6627726 28.9751297,59.4009864 29.4017045,59.895 L29.4257386,59.8790323 Z" id="Shape" fill="#F68D20" fill-rule="nonzero" opacity="0.62"></path>
                    </g>
                </g>
            </g>
        </g>
    </g>
</svg>