<?xml version="1.0" encoding="UTF-8"?>
<svg width="76px" height="160px" viewBox="0 0 76 160" version="1.1" xmlns="http://www.w3.org/2000/svg" xmlns:xlink="http://www.w3.org/1999/xlink">
    <!-- Generator: Sketch 46.2 (44496) - http://www.bohemiancoding.com/sketch -->
    <title>_ Card Icon</title>
    <desc>Created with Sketch.</desc>
    <defs>
        <linearGradient x1="192.152605%" y1="314.360928%" x2="-118.0366%" y2="-262.462193%" id="linearGradient-1">
            <stop stop-color="#EE499A" offset="0%"></stop>
            <stop stop-color="#F05683" offset="10%"></stop>
            <stop stop-color="#F26A5F" offset="27%"></stop>
            <stop stop-color="#F47944" offset="45%"></stop>
            <stop stop-color="#F58430" offset="62%"></stop>
            <stop stop-color="#F68B24" offset="80%"></stop>
            <stop stop-color="#F68D20" offset="98%"></stop>
        </linearGradient>
    </defs>
    <g id="Landing" stroke="none" stroke-width="1" fill="none" fill-rule="evenodd">
        <g id="Totemic-1920" transform="translate(-314.000000, -2630.000000)">
            <g id="HOW-IT-WORKS" transform="translate(-119.000000, 1920.000000)">
                <g id="TOTEMIC-CARD" transform="translate(312.000000, 711.000000)">
                    <g id="_-Card-Icon" transform="translate(122.000000, 0.000000)">
                        <path d="M0.0565577975,98.3765661 L0.0565577975,123.253621" id="Shape" stroke="#F68D20" stroke-width="1.584" opacity="0.62" stroke-linecap="round"></path>
                        <path d="M0,103.541078 L0,128.418132" id="Shape" stroke="#F68D20" stroke-width="1.584" opacity="0.62" stroke-linecap="round"></path>
                        <path d="M74.1112346,97.3856609 L74.1112346,122.262716" id="Shape" stroke="#F68D20" stroke-width="1.584" opacity="0.62" stroke-linecap="round"></path>
                        <path d="M74.1112346,104.250489 L74.1112346,129.127543" id="Shape" stroke="#F68D20" stroke-width="1.584" opacity="0.62" stroke-linecap="round"></path>
                        <path d="M0.0323187415,17.2797366 L0.0323187415,42.1647366" id="Shape" stroke="#F68D20" stroke-width="1.584" opacity="0.62" stroke-linecap="round"></path>
                        <path d="M0.0323187415,23.8982567 L0.0323187415,48.7832567" id="Shape" stroke="#F68D20" stroke-width="1.584" opacity="0.62" stroke-linecap="round"></path>
                        <path d="M36.3970588,0 L36.3970588,15.9066954" id="Shape" stroke="#F68D20" stroke-width="1.2672" opacity="0.62" stroke-linecap="round"></path>
                        <path d="M36.3970588,3.29166667 L36.3970588,19.1983621" id="Shape" stroke="#F68D20" stroke-width="1.2672" opacity="0.62" stroke-linecap="round"></path>
                        <path d="M74.1112346,16.1594349 L74.1112346,41.0364895" id="Shape" stroke="#F68D20" stroke-width="1.584" opacity="0.62" stroke-linecap="round"></path>
                        <path d="M74.1112346,23.0242625 L74.1112346,47.9092625" id="Shape" stroke="#F68D20" stroke-width="1.584" opacity="0.62" stroke-linecap="round"></path>
                        <path d="M36.3970588,122.888889 L36.3970588,147.765943" id="Shape" stroke="#F68D20" stroke-width="1.584" opacity="0.62" stroke-linecap="round"></path>
                        <path d="M36.3970588,132.763889 L36.3970588,157.640943" id="Shape" stroke="#F68D20" stroke-width="1.584" opacity="0.62" stroke-linecap="round"></path>
                        <path d="M17.0406977,38.4027778 C13.7281019,38.4201517 11.0470793,41.0566161 11.0294118,44.3141571 L11.0294118,103.420005 C11.0470793,106.677546 13.7281019,109.31401 17.0406977,109.331384 L57.1159371,109.331384 C60.4285329,109.31401 63.1095554,106.677546 63.127223,103.420005 L63.127223,44.3141571 C63.1095554,41.0566161 60.4285329,38.4201517 57.1159371,38.4027778 L17.0406977,38.4027778 Z M17.0406977,42.3754789 L57.1159371,42.3754789 C57.6513774,42.362254 58.1688932,42.5656057 58.5476261,42.9380441 C58.926359,43.3104825 59.1331475,43.8193973 59.119699,44.3459387 L59.119699,103.420005 C59.1331475,103.946546 58.926359,104.455461 58.5476261,104.827899 C58.1688932,105.200338 57.6513774,105.403689 57.1159371,105.390465 L17.0406977,105.390465 C16.5052574,105.403689 15.9877415,105.200338 15.6090086,104.827899 C15.2302758,104.455461 15.0234873,103.946546 15.0369357,103.420005 L15.0369357,44.3141571 C15.0234873,43.7876157 15.2302758,43.2787009 15.6090086,42.9062625 C15.9877415,42.5338241 16.5052574,42.3304724 17.0406977,42.3436973 L17.0406977,42.3754789 Z M36.8601659,58.1312117 C36.1179452,58.2064405 35.4797056,58.6809916 35.2038304,59.362749 C33.1233476,64.3861049 29.8778957,68.8618416 25.7263594,72.4329358 C24.9061069,73.1617425 24.8410289,74.4061173 25.5809251,75.2138266 L25.7263594,75.3568439 C29.8787883,78.9225448 33.1269152,83.3927132 35.2119101,88.4111398 C35.5034221,89.183444 36.2527231,89.6959086 37.0904369,89.6959086 C37.9281507,89.6959086 38.6774517,89.183444 38.9689637,88.4111398 C41.047257,83.3820565 44.292852,78.9006808 48.4464347,75.3250623 C49.2666872,74.5962556 49.3317652,73.3518808 48.591869,72.5441715 L48.4464347,72.4329358 C44.2869781,68.8590564 41.035747,64.3775398 38.9528044,59.3468582 C38.6133165,58.5243907 37.7565258,58.0266675 36.8601659,58.1312117 L36.8601659,58.1312117 Z M37.0379189,64.733841 C39.0137948,68.1175475 41.4827272,71.198597 44.3661936,73.878999 C41.4849706,76.5494648 39.01612,79.6197052 37.0379189,82.9923755 C35.0770407,79.6233609 32.6273989,76.5533145 29.7662021,73.878999 C32.6296414,71.1947456 35.0793646,68.1138905 37.0379189,64.733841 L37.0379189,64.733841 Z" id="Shape" fill="url(#linearGradient-1)" fill-rule="nonzero"></path>
                    </g>
                </g>
            </g>
        </g>
    </g>
</svg>