<?xml version="1.0" encoding="UTF-8"?>
<svg width="76px" height="98px" viewBox="0 0 76 98" version="1.1" xmlns="http://www.w3.org/2000/svg" xmlns:xlink="http://www.w3.org/1999/xlink">
    <!-- Generator: Sketch 46.2 (44496) - http://www.bohemiancoding.com/sketch -->
    <title>_ Trade Icon </title>
    <desc>Created with Sketch.</desc>
    <defs>
        <linearGradient x1="192.076923%" y1="314.180556%" x2="-117.980769%" y2="-262.305556%" id="linearGradient-1">
            <stop stop-color="#EE499A" offset="0%"></stop>
            <stop stop-color="#F05683" offset="10%"></stop>
            <stop stop-color="#F26A5F" offset="27%"></stop>
            <stop stop-color="#F47944" offset="45%"></stop>
            <stop stop-color="#F58430" offset="62%"></stop>
            <stop stop-color="#F68B24" offset="80%"></stop>
            <stop stop-color="#F68D20" offset="98%"></stop>
        </linearGradient>
        <linearGradient x1="13748%" y1="11928.3509%" x2="-2374%" y2="-9677.97328%" id="linearGradient-2">
            <stop stop-color="#EE499A" offset="0%"></stop>
            <stop stop-color="#F05683" offset="10%"></stop>
            <stop stop-color="#F26A5F" offset="27%"></stop>
            <stop stop-color="#F47944" offset="45%"></stop>
            <stop stop-color="#F58430" offset="62%"></stop>
            <stop stop-color="#F68B24" offset="80%"></stop>
            <stop stop-color="#F68D20" offset="98%"></stop>
        </linearGradient>
        <linearGradient x1="8697%" y1="6152.67409%" x2="2801%" y2="-2349.3994%" id="linearGradient-3">
            <stop stop-color="#EE499A" offset="0%"></stop>
            <stop stop-color="#F05683" offset="10%"></stop>
            <stop stop-color="#F26A5F" offset="27%"></stop>
            <stop stop-color="#F47944" offset="45%"></stop>
            <stop stop-color="#F58430" offset="62%"></stop>
            <stop stop-color="#F68B24" offset="80%"></stop>
            <stop stop-color="#F68D20" offset="98%"></stop>
        </linearGradient>
    </defs>
    <g id="Landing" stroke="none" stroke-width="1" fill="none" fill-rule="evenodd">
        <g id="Totemic-1920" transform="translate(-713.000000, -3257.000000)">
            <g id="HOW-IT-WORKS" transform="translate(-119.000000, 1920.000000)">
                <g id="TRADE-OPENLY" transform="translate(703.000000, 1338.000000)">
                    <g id="_-Trade-Icon-" transform="translate(130.000000, 0.000000)">
                        <path d="M62.7210989,65.7756198 L53.9793407,76.5979339" id="Shape" stroke="#F68D20" stroke-width="1.584" opacity="0.62" stroke-linecap="round"></path>
                        <path d="M60.4116484,68.5653719 L51.678022,79.3957025" id="Shape" stroke="#F68D20" stroke-width="1.584" opacity="0.62" stroke-linecap="round"></path>
                        <path d="M71.0237363,74.0326446 L52.8815385,95.9979339" id="Shape" stroke="#F68D20" stroke-width="1.584" opacity="0.62" stroke-linecap="round"></path>
                        <path d="M73.5934066,70.9302479 L55.4512088,92.8955372" id="Shape" stroke="#F68D20" stroke-width="1.584" opacity="0.62" stroke-linecap="round"></path>
                        <path d="M11.4008791,31.1522314 L18.809011,19.3919835" id="Shape" stroke="#F68D20" stroke-width="1.584" opacity="0.62" stroke-linecap="round"></path>
                        <path d="M13.3687912,28.1139669 L20.7687912,16.353719" id="Shape" stroke="#F68D20" stroke-width="1.584" opacity="0.62" stroke-linecap="round"></path>
                        <path d="M2.17934066,23.8972727 L17.6054945,0" id="Shape" stroke="#F68D20" stroke-width="1.584" opacity="0.62" stroke-linecap="round"></path>
                        <path d="M0,27.2802479 L15.4261538,3.38297521" id="Shape" stroke="#F68D20" stroke-width="1.584" opacity="0.62" stroke-linecap="round"></path>
                        <path d="M7.74967033,38.7358678 C5.05500628,38.7358678 2.87054945,40.8893411 2.87054945,43.5457851 L2.87054945,91.6449587 C2.87054945,94.3014027 5.05500628,96.454876 7.74967033,96.454876 L40.2771429,96.454876 C42.9718069,96.454876 45.1562637,94.3014027 45.1562637,91.6449587 L45.1562637,43.5457851 C45.1562637,40.8893411 42.9718069,38.7358678 40.2771429,38.7358678 L7.74967033,38.7358678 Z M7.74967033,41.9424793 L40.2771429,41.9424793 C41.1753642,41.9424793 41.9035165,42.6603038 41.9035165,43.5457851 L41.9035165,91.6449587 C41.9035165,92.53044 41.1753642,93.2482645 40.2771429,93.2482645 L7.74967033,93.2482645 C6.85144898,93.2482645 6.1232967,92.53044 6.1232967,91.6449587 L6.1232967,43.5457851 C6.1232967,42.6603038 6.85144898,41.9424793 7.74967033,41.9424793 Z M23.8263736,54.7689256 C23.2218866,54.8282103 22.7013011,55.2146574 22.4764835,55.7709917 C20.7839296,59.8546746 18.1468709,63.4919965 14.7756044,66.3928926 C14.1052042,66.9800131 14.0433635,67.9912917 14.6373626,68.6535537 L14.7512088,68.7657851 C18.1312174,71.6563228 20.7794052,75.2853962 22.4846154,79.3636364 C22.7212241,79.9920378 23.3294018,80.4090153 24.0093407,80.4090153 C24.6892795,80.4090153 25.2974572,79.9920378 25.5340659,79.3636364 C27.2266199,75.2799535 29.8636786,71.6426316 33.2349451,68.7417355 C33.8592587,68.1515248 33.9057105,67.1828279 33.3406593,66.5371901 L33.2268132,66.4249587 C29.8543832,63.5140568 27.2198724,59.8654265 25.5340659,55.7709917 C25.2629027,55.0962617 24.5657913,54.6852426 23.8345055,54.7689256 L23.8263736,54.7689256 Z M24.0052747,60.1239669 C25.6078382,62.8764457 27.6105401,65.3828027 29.9496703,67.5633058 C27.6122555,69.7363094 25.609618,72.2344837 24.0052747,74.978595 C22.4009314,72.2344837 20.3982939,69.7363094 18.0608791,67.5633058 C20.4000094,65.3828027 22.4027112,62.8764457 24.0052747,60.1239669 L24.0052747,60.1239669 Z" id="Shape" fill="url(#linearGradient-1)" fill-rule="nonzero"></path>
                        <path d="M64.192967,2.33280992 L31.7142857,2.33280992 C29.0196217,2.33280992 26.8351648,4.48628327 26.8351648,7.14272727 L26.8351648,38.7759504 L30.0879121,38.7759504 L30.0879121,7.13471074 C30.0879121,6.24922941 30.8160644,5.53140496 31.7142857,5.53140496 L64.2417582,5.53140496 C65.1399796,5.53140496 65.8681319,6.24922941 65.8681319,7.13471074 L65.8681319,55.2338843 C65.8681319,56.1193656 65.1399796,56.8371901 64.2417582,56.8371901 L45.1481319,56.8371901 L45.1481319,60.0438017 L64.192967,60.0438017 C66.8876311,60.0438017 69.0720879,57.8903283 69.0720879,55.2338843 L69.0720879,7.13471074 C69.0676021,4.48139793 66.8844586,2.33280623 64.192967,2.33280992 Z" id="Shape" fill="url(#linearGradient-2)" fill-rule="nonzero"></path>
                        <path d="M48.4984615,43.922562 C48.9428509,43.7601394 49.2932625,43.4146979 49.458022,42.9766116 C51.1505759,38.8929287 53.7876346,35.2556068 57.1589011,32.3547107 C57.8220504,31.7607226 57.8729567,30.749868 57.2727473,30.0940496 L57.1589011,29.9818182 C53.7876346,27.0809221 51.1505759,23.4436002 49.458022,19.3599174 C49.2214133,18.7315159 48.6132355,18.3145384 47.9332967,18.3145384 C47.2533579,18.3145384 46.6451801,18.7315159 46.4085714,19.3599174 C44.7160175,23.4436002 42.0789588,27.0809221 38.7076923,29.9818182 C38.044543,30.5758063 37.9936367,31.5866609 38.5938462,32.2424793 L38.7076923,32.3547107 C42.0789588,35.2556068 44.7160175,38.8929287 46.4085714,42.9766116 C46.7208236,43.8066404 47.6563852,44.2301052 48.4984615,43.922562 Z M47.9292308,23.7449587 C49.5318913,26.4973728 51.5345826,29.0037166 53.8736264,31.1842975 C51.5361254,33.3572234 49.5334774,35.8554108 47.9292308,38.5995868 C46.3249842,35.8554108 44.3223361,33.3572234 41.9848352,31.1842975 C44.3267588,29.0042735 46.3322123,26.4979015 47.9373626,23.7449587 L47.9292308,23.7449587 Z" id="Shape" fill="url(#linearGradient-3)" fill-rule="nonzero"></path>
                    </g>
                </g>
            </g>
        </g>
    </g>
</svg>