<?xml version="1.0" encoding="UTF-8"?>
<svg width="102px" height="155px" viewBox="0 0 102 155" version="1.1" xmlns="http://www.w3.org/2000/svg" xmlns:xlink="http://www.w3.org/1999/xlink">
    <!-- Generator: Sketch 46.2 (44496) - http://www.bohemiancoding.com/sketch -->
    <title>_ Present Icon</title>
    <desc>Created with Sketch.</desc>
    <defs>
        <linearGradient x1="110.460698%" y1="212.186644%" x2="-112.764189%" y2="-385.417757%" id="linearGradient-1">
            <stop stop-color="#EE499A" offset="0%"></stop>
            <stop stop-color="#F05683" offset="10%"></stop>
            <stop stop-color="#F26A5F" offset="27%"></stop>
            <stop stop-color="#F47944" offset="45%"></stop>
            <stop stop-color="#F58430" offset="62%"></stop>
            <stop stop-color="#F68B24" offset="80%"></stop>
            <stop stop-color="#F68D20" offset="98%"></stop>
        </linearGradient>
    </defs>
    <g id="Landing" stroke="none" stroke-width="1" fill="none" fill-rule="evenodd">
        <g id="Totemic-1920" transform="translate(-1516.000000, -2631.000000)">
            <g id="HOW-IT-WORKS" transform="translate(-119.000000, 1920.000000)">
                <g id="NO-RISK" transform="translate(1518.000000, 712.000000)">
                    <g id="_-Present-Icon" transform="translate(118.000000, 0.000000)">
                        <path d="M19.8367809,64.2168303 L19.8367809,71.5409432 C19.8388785,73.8472449 21.5180101,75.8252736 23.8336658,76.2493015 L23.8336658,99.3181072 C23.8336658,102.848573 26.7571163,105.710581 30.3633752,105.710581 L70.95445,105.710581 C74.5607089,105.710581 77.4841594,102.848573 77.4841594,99.3181072 L77.4841594,76.242135 C79.8000187,75.8216442 81.4820896,73.8467859 81.4883646,71.5409432 L81.4883646,64.2168303 C81.4883646,61.5689807 79.2957767,59.4224746 76.5910825,59.4224746 L68.9120857,59.4224746 C70.5509495,57.1420238 70.754019,54.1572037 69.4385577,51.684118 C68.1230965,49.2110323 65.508699,47.6625217 62.6605478,47.6694949 C56.2406429,47.6694949 52.53657,52.7648416 50.6552524,56.5702271 C48.7812551,52.7648416 45.069862,47.6694949 38.6499571,47.6694949 C35.8018059,47.6625217 33.1874083,49.2110323 31.8719471,51.684118 C30.5564859,54.1572037 30.7595554,57.1420238 32.3984192,59.4224746 L24.7340629,59.4224746 C22.0293687,59.4224746 19.8367809,61.5689807 19.8367809,64.2168303 Z M23.1016356,71.5337767 L23.1016356,64.2168303 C23.1016356,63.3342137 23.8324982,62.6187117 24.7340629,62.6187117 L49.0301454,62.6187117 L49.0301454,73.1390617 L24.7340629,73.1390617 C23.8324982,73.1390617 23.1016356,72.4235597 23.1016356,71.5409432 L23.1016356,71.5337767 Z M30.3633752,102.507178 C29.4974819,102.507178 28.6670533,102.170432 28.0547743,101.571022 C27.4424953,100.971611 27.0985205,100.158636 27.0985205,99.3109407 L27.0985205,76.3281324 L49.0594266,76.3281324 L49.0594266,102.507178 L30.3633752,102.507178 Z M70.95445,102.507178 L52.2950001,102.507178 L52.2950001,76.3281324 L74.2559062,76.3281324 L74.2559062,99.3109407 C74.2579197,100.166122 73.9097884,100.986427 73.2893549,101.588434 C72.6689215,102.19044 71.8279381,102.523934 70.95445,102.514344 L70.95445,102.507178 Z M78.2161896,64.2096638 L78.2161896,71.5266103 C78.2161896,72.4092268 77.4853269,73.1247288 76.5837622,73.1247288 L52.2950001,73.1247288 L52.2950001,62.6258781 L76.5837622,62.6258781 C77.4853269,62.6258781 78.2161896,63.3413802 78.2161896,64.2239967 L78.2161896,64.2096638 Z M62.6605478,50.8728985 C64.3264862,50.7091914 65.9425884,51.4869683 66.8276223,52.8783744 C67.7126562,54.2697806 67.7126562,56.0327589 66.8276223,57.4241651 C65.9425884,58.8155713 64.3264862,59.5933481 62.6605478,59.429641 L52.9391867,59.429641 C54.1909583,56.3624 57.1849618,50.8728985 62.6605478,50.8728985 Z M34.2870571,55.122604 C34.2870571,52.747851 36.2535036,50.8227334 38.6792383,50.8227334 C44.1109024,50.8227334 47.1341871,56.3194013 48.3932791,59.3794758 L38.6572774,59.3794758 C36.2571552,59.3678445 34.3110292,57.4721943 34.2870571,55.122604 L34.2870571,55.122604 Z" id="Shape" fill="url(#linearGradient-1)" fill-rule="nonzero"></path>
                        <path d="M100,26.3481286 L79.7430511,46.574576" id="Shape" stroke="#F68D20" stroke-width="1.584" opacity="0.62" stroke-linecap="round"></path>
                        <path d="M0,26.3481286 L20.2569489,46.574576" id="Shape" stroke="#F68D20" stroke-width="1.584" opacity="0.62" stroke-linecap="round"></path>
                        <path d="M49.7818358,6.56429848 L49.7818358,35.5848535" id="Shape" stroke="#F68D20" stroke-width="1.584" opacity="0.62" stroke-linecap="round"></path>
                        <path d="M49.7818358,0.40842318 L49.7818358,29.4289782" id="Shape" stroke="#F68D20" stroke-width="1.584" opacity="0.62" stroke-linecap="round"></path>
                        <path d="M92.0572075,124.597529 L83.2498384,110.526957" id="Shape" stroke="#F68D20" stroke-width="1.584" opacity="0.62" stroke-linecap="round"></path>
                        <path d="M94.5216548,128.545392 L85.7142857,114.47482" id="Shape" stroke="#F68D20" stroke-width="1.584" opacity="0.62" stroke-linecap="round"></path>
                        <path d="M5.7449903,125.255631 L14.5523594,111.185059" id="Shape" stroke="#F68D20" stroke-width="1.584" opacity="0.62" stroke-linecap="round"></path>
                        <path d="M2.1978022,130.746831 L11.0051713,116.676259" id="Shape" stroke="#F68D20" stroke-width="1.584" opacity="0.62" stroke-linecap="round"></path>
                        <path d="M48.9010989,146.151828 L48.9010989,117.131273" id="Shape" stroke="#F68D20" stroke-width="1.584" opacity="0.62" stroke-linecap="round"></path>
                        <path d="M48.9010989,152.307704 L48.9010989,123.287149" id="Shape" stroke="#F68D20" stroke-width="1.584" opacity="0.62" stroke-linecap="round"></path>
                    </g>
                </g>
            </g>
        </g>
    </g>
</svg>